<svg version="1.1" viewBox="0.0 0.0 600.0 371.0" fill="none" stroke="none" stroke-linecap="square" stroke-miterlimit="10" width="600" height="371" xmlns:xlink="http://www.w3.org/1999/xlink" xmlns="http://www.w3.org/2000/svg"><path fill="#ffffff" d="M0 0L600.0 0L600.0 371.0L0 371.0L0 0Z" fill-rule="nonzero"/><path stroke="#333333" stroke-width="1.0" stroke-linecap="butt" d="M105.5 332.5L581.5 332.5" fill-rule="nonzero"/><path stroke="#cccccc" stroke-width="1.0" stroke-linecap="butt" d="M105.5 255.5L581.5 255.5" fill-rule="nonzero"/><path stroke="#cccccc" stroke-width="1.0" stroke-linecap="butt" d="M105.5 179.5L581.5 179.5" fill-rule="nonzero"/><path stroke="#cccccc" stroke-width="1.0" stroke-linecap="butt" d="M105.5 102.5L581.5 102.5" fill-rule="nonzero"/><path stroke="#cccccc" stroke-width="1.0" stroke-linecap="butt" d="M105.5 25.5L581.5 25.5" fill-rule="nonzero"/><clipPath id="id_0"><path d="M105.55 25.55L581.45 25.55L581.45 332.45L105.55 332.45L105.55 25.55Z" clip-rule="nonzero"/></clipPath><path stroke="#000000" stroke-width="2.0" stroke-linecap="butt" stroke-opacity="0.0" clip-path="url(#id_0)" d="M247.0 332.0L155.0 332.0L155.0 252.0C155.0 250.89543 155.89543 250.0 157.0 250.0L245.0 250.0C246.10457 250.0 247.0 250.89543 247.0 252.0Z" fill-rule="nonzero"/><path fill="#5891ad" clip-path="url(#id_0)" d="M247.0 332.0L155.0 332.0L155.0 252.0C155.0 250.89543 155.89543 250.0 157.0 250.0L245.0 250.0C246.10457 250.0 247.0 250.89543 247.0 252.0Z" fill-rule="nonzero"/><path stroke="#000000" stroke-width="2.0" stroke-linecap="butt" stroke-opacity="0.0" clip-path="url(#id_0)" d="M390.0 332.0L298.0 332.0L298.0 139.0C298.0 137.89543 298.89542 137.0 300.0 137.0L388.0 137.0C389.10458 137.0 390.0 137.89543 390.0 139.0Z" fill-rule="nonzero"/><path fill="#5891ad" clip-path="url(#id_0)" d="M390.0 332.0L298.0 332.0L298.0 139.0C298.0 137.89543 298.89542 137.0 300.0 137.0L388.0 137.0C389.10458 137.0 390.0 137.89543 390.0 139.0Z" fill-rule="nonzero"/><path stroke="#000000" stroke-width="2.0" stroke-linecap="butt" stroke-opacity="0.0" clip-path="url(#id_0)" d="M532.0 332.0L440.0 332.0L440.0 306.0C440.0 304.89542 440.89542 304.0 442.0 304.0L530.0 304.0C531.10455 304.0 532.0 304.89542 532.0 306.0Z" fill-rule="nonzero"/><path fill="#5891ad" clip-path="url(#id_0)" d="M532.0 332.0L440.0 332.0L440.0 306.0C440.0 304.89542 440.89542 304.0 442.0 304.0L530.0 304.0C531.10455 304.0 532.0 304.89542 532.0 306.0Z" fill-rule="nonzero"/><path fill="#000000" d="M29.550013 238.57812L20.956263 238.57812L20.956263 235.32812Q20.956263 234.48438 21.034388 234.03125Q21.143763 233.39062 21.440638 232.96875Q21.737513 232.53125 22.268763 232.28125Q22.800013 232.01562 23.440638 232.01562Q24.534388 232.01562 25.300013 232.71875Q26.050013 233.40625 26.050013 235.23438L26.050013 237.4375L29.550013 237.4375L29.550013 238.57812ZM25.050013 237.4375L25.050013 235.21875Q25.050013 234.10938 24.643763 233.65625Q24.221888 233.1875 23.471888 233.1875Q22.940638 233.1875 22.565638 233.46875Q22.175013 233.73438 22.050013 234.17188Q21.971888 234.46875 21.971888 235.23438L21.971888 237.4375L25.050013 237.4375ZM27.550013 226.45312L27.675013 225.35938Q28.628138 225.60938 29.159388 226.3125Q29.690638 227.01562 29.690638 228.09375Q29.690638 229.45312 28.846888 230.26562Q28.003138 231.0625 26.487513 231.0625Q24.925013 231.0625 24.065638 230.25Q23.190638 229.4375 23.190638 228.15625Q23.190638 226.90625 24.034388 226.125Q24.878138 225.32812 26.425013 225.32812Q26.518763 225.32812 26.706263 225.32812L26.706263 229.96875Q27.737513 229.90625 28.284388 229.39062Q28.815638 228.875 28.815638 228.09375Q28.815638 227.51562 28.518763 227.10938Q28.206263 226.6875 27.550013 226.45312ZM25.846888 229.90625L25.846888 226.4375Q25.050013 226.5 24.659388 226.82812Q24.050013 227.34375 24.050013 228.14062Q24.050013 228.875 24.534388 229.375Q25.018763 229.85938 25.846888 229.90625ZM29.550013 223.71875L23.331263 223.71875L23.331263 222.76562L24.268763 222.76562Q23.612513 222.40625 23.409388 222.10938Q23.190638 221.79688 23.190638 221.42188Q23.190638 220.89062 23.518763 220.34375L24.503138 220.70312Q24.268763 221.09375 24.268763 221.46875Q24.268763 221.82812 24.487513 222.10938Q24.690638 222.375 25.065638 222.48438Q25.628138 222.67188 26.284388 222.67188L29.550013 222.67188L29.550013 223.71875ZM27.268763 215.64062L27.409388 214.60938Q28.471888 214.78125 29.081263 215.48438Q29.690638 216.1875 29.690638 217.20312Q29.690638 218.48438 28.862513 219.26562Q28.018763 220.03125 26.456263 220.03125Q25.456263 220.03125 24.706263 219.70312Q23.940638 219.35938 23.565638 218.6875Q23.190638 218.0 23.190638 217.1875Q23.190638 216.1875 23.706263 215.54688Q24.206263 214.89062 25.159388 214.70312L25.315638 215.73438Q24.690638 215.875 24.378138 216.25Q24.050013 216.625 24.050013 217.15625Q24.050013 217.95312 24.628138 218.45312Q25.190638 218.95312 26.425013 218.95312Q27.690638 218.95312 28.253138 218.46875Q28.815638 217.98438 28.815638 217.21875Q28.815638 216.59375 28.440638 216.1875Q28.065638 215.76562 27.268763 215.64062ZM27.550013 209.45312L27.675013 208.35938Q28.628138 208.60938 29.159388 209.3125Q29.690638 210.01562 29.690638 211.09375Q29.690638 212.45312 28.846888 213.26562Q28.003138 214.0625 26.487513 214.0625Q24.925013 214.0625 24.065638 213.25Q23.190638 212.4375 23.190638 211.15625Q23.190638 209.90625 24.034388 209.125Q24.878138 208.32812 26.425013 208.32812Q26.518763 208.32812 26.706263 208.32812L26.706263 212.96875Q27.737513 212.90625 28.284388 212.39062Q28.815638 211.875 28.815638 211.09375Q28.815638 210.51562 28.518763 210.10938Q28.206263 209.6875 27.550013 209.45312ZM25.846888 212.90625L25.846888 209.4375Q25.050013 209.5 24.659388 209.82812Q24.050013 210.34375 24.050013 211.14062Q24.050013 211.875 24.534388 212.375Q25.018763 212.85938 25.846888 212.90625ZM29.550013 206.70312L23.331263 206.70312L23.331263 205.76562L24.206263 205.76562Q23.190638 205.07812 23.190638 203.78125Q23.190638 203.21875 23.393763 202.75Q23.596888 202.26562 23.925013 202.03125Q24.253138 201.79688 24.690638 201.70312Q24.987513 201.65625 25.721888 201.65625L29.550013 201.65625L29.550013 202.70312L25.768763 202.70312Q25.112513 202.70312 24.800013 202.82812Q24.487513 202.95312 24.300013 203.26562Q24.096888 203.57812 24.096888 204.0Q24.096888 204.67188 24.534388 205.17188Q24.956263 205.65625 26.143763 205.65625L29.550013 205.65625L29.550013 206.70312ZM28.612513 197.40625L29.534388 197.25Q29.628138 197.70312 29.628138 198.04688Q29.628138 198.625 29.456263 198.9375Q29.268763 199.25 28.971888 199.39062Q28.675013 199.51562 27.721888 199.51562L24.143763 199.51562L24.143763 200.28125L23.331263 200.28125L23.331263 199.51562L21.784388 199.51562L21.159388 198.46875L23.331263 198.46875L23.331263 197.40625L24.143763 197.40625L24.143763 198.46875L27.784388 198.46875Q28.237513 198.46875 28.362513 198.42188Q28.487513 198.35938 28.565638 198.23438Q28.643763 198.10938 28.643763 197.875Q28.643763 197.6875 28.612513 197.40625ZM28.784388 192.64062Q29.284388 193.23438 29.487513 193.78125Q29.690638 194.3125 29.690638 194.9375Q29.690638 195.96875 29.190638 196.51562Q28.690638 197.0625 27.909388 197.0625Q27.456263 197.0625 27.081263 196.85938Q26.690638 196.65625 26.471888 196.3125Q26.237513 195.96875 26.128138 195.54688Q26.034388 195.25 25.956263 194.60938Q25.815638 193.34375 25.596888 192.73438Q25.378138 192.73438 25.331263 192.73438Q24.675013 192.73438 24.409388 193.03125Q24.065638 193.4375 24.065638 194.23438Q24.065638 194.96875 24.331263 195.32812Q24.581263 195.6875 25.237513 195.85938L25.096888 196.89062Q24.440638 196.75 24.034388 196.42188Q23.628138 196.09375 23.409388 195.48438Q23.190638 194.875 23.190638 194.07812Q23.190638 193.28125 23.378138 192.78125Q23.565638 192.28125 23.846888 192.04688Q24.128138 191.8125 24.565638 191.71875Q24.831263 191.67188 25.534388 191.67188L26.940638 191.67188Q28.409388 191.67188 28.800013 191.60938Q29.190638 191.53125 29.550013 191.32812L29.550013 192.4375Q29.221888 192.59375 28.784388 192.64062ZM26.425013 192.73438Q26.659388 193.3125 26.831263 194.45312Q26.925013 195.10938 27.050013 195.375Q27.159388 195.64062 27.378138 195.79688Q27.596888 195.9375 27.878138 195.9375Q28.300013 195.9375 28.581263 195.625Q28.862513 195.29688 28.862513 194.6875Q28.862513 194.07812 28.596888 193.60938Q28.331263 193.125 27.862513 192.90625Q27.503138 192.73438 26.815638 192.73438L26.425013 192.73438ZM30.065638 189.90625L30.221888 188.875Q30.690638 188.8125 30.909388 188.51562Q31.206263 188.125 31.206263 187.45312Q31.206263 186.71875 30.909388 186.32812Q30.612513 185.92188 30.096888 185.78125Q29.768763 185.6875 28.737513 185.70312Q29.550013 186.39062 29.550013 187.42188Q29.550013 188.70312 28.628138 189.40625Q27.690638 190.10938 26.409388 190.10938Q25.518763 190.10938 24.768763 189.79688Q24.003138 189.46875 23.596888 188.85938Q23.190638 188.25 23.190638 187.42188Q23.190638 186.3125 24.081263 185.59375L23.331263 185.59375L23.331263 184.625L28.706263 184.625Q30.159388 184.625 30.768763 184.92188Q31.378138 185.21875 31.721888 185.85938Q32.08126 186.5 32.08126 187.4375Q32.08126 188.54688 31.581263 189.23438Q31.081263 189.92188 30.065638 189.90625ZM26.331263 189.03125Q27.550013 189.03125 28.112513 188.54688Q28.675013 188.0625 28.675013 187.32812Q28.675013 186.59375 28.112513 186.10938Q27.550013 185.60938 26.362513 185.60938Q25.221888 185.60938 24.643763 186.125Q24.065638 186.625 24.065638 187.34375Q24.065638 188.04688 24.643763 188.54688Q25.206263 189.03125 26.331263 189.03125ZM27.550013 178.45312L27.675013 177.35938Q28.628138 177.60938 29.159388 178.3125Q29.690638 179.01562 29.690638 180.09375Q29.690638 181.45312 28.846888 182.26562Q28.003138 183.0625 26.487513 183.0625Q24.925013 183.0625 24.065638 182.25Q23.190638 181.4375 23.190638 180.15625Q23.190638 178.90625 24.034388 178.125Q24.878138 177.32812 26.425013 177.32812Q26.518763 177.32812 26.706263 177.32812L26.706263 181.96875Q27.737513 181.90625 28.284388 181.39062Q28.815638 180.875 28.815638 180.09375Q28.815638 179.51562 28.518763 179.10938Q28.206263 178.6875 27.550013 178.45312ZM25.846888 181.90625L25.846888 178.4375Q25.050013 178.5 24.659388 178.82812Q24.050013 179.34375 24.050013 180.14062Q24.050013 180.875 24.534388 181.375Q25.018763 181.85938 25.846888 181.90625ZM26.440638 173.09375Q24.706263 173.09375 23.878138 172.14062Q23.190638 171.34375 23.190638 170.1875Q23.190638 168.90625 24.034388 168.09375Q24.862513 167.26562 26.346888 167.26562Q27.550013 167.26562 28.237513 167.625Q28.925013 167.98438 29.315638 168.6875Q29.690638 169.375 29.690638 170.1875Q29.690638 171.48438 28.862513 172.29688Q28.018763 173.09375 26.440638 173.09375ZM26.440638 172.01562Q27.628138 172.01562 28.221888 171.5Q28.815638 170.96875 28.815638 170.1875Q28.815638 169.39062 28.221888 168.875Q27.628138 168.35938 26.409388 168.35938Q25.253138 168.35938 24.659388 168.89062Q24.065638 169.40625 24.065638 170.1875Q24.065638 170.96875 24.659388 171.5Q25.237513 172.01562 26.440638 172.01562ZM29.550013 165.45312L24.143763 165.45312L24.143763 166.39062L23.331263 166.39062L23.331263 165.45312L22.659388 165.45312Q22.034388 165.45312 21.737513 165.34375Q21.315638 165.1875 21.065638 164.8125Q20.815638 164.42188 20.815638 163.73438Q20.815638 163.28125 20.925013 162.75L21.831263 162.90625Q21.784388 163.23438 21.784388 163.53125Q21.784388 164.01562 21.987513 164.21875Q22.190638 164.40625 22.753138 164.40625L23.331263 164.40625L23.331263 163.1875L24.143763 163.1875L24.143763 164.40625L29.550013 164.40625L29.550013 165.45312ZM29.550013 157.98438L23.331263 160.34375L23.331263 159.23438L27.050013 157.89062Q27.659388 157.6875 28.300013 157.5Q27.815638 157.35938 27.128138 157.10938L23.331263 155.71875L23.331263 154.64062L29.550013 157.0L29.550013 157.98438ZM26.440638 155.09375Q24.706263 155.09375 23.878138 154.14062Q23.190638 153.34375 23.190638 152.1875Q23.190638 150.90625 24.034388 150.09375Q24.862513 149.26562 26.346888 149.26562Q27.550013 149.26562 28.237513 149.625Q28.925013 149.98438 29.315638 150.6875Q29.690638 151.375 29.690638 152.1875Q29.690638 153.48438 28.862513 154.29688Q28.018763 155.09375 26.440638 155.09375ZM26.440638 154.01562Q27.628138 154.01562 28.221888 153.5Q28.815638 152.96875 28.815638 152.1875Q28.815638 151.39062 28.221888 150.875Q27.628138 150.35938 26.409388 150.35938Q25.253138 150.35938 24.659388 150.89062Q24.065638 151.40625 24.065638 152.1875Q24.065638 152.96875 24.659388 153.5Q25.237513 154.01562 26.440638 154.01562ZM28.612513 145.40625L29.534388 145.25Q29.628138 145.70312 29.628138 146.04688Q29.628138 146.625 29.456263 146.9375Q29.268763 147.25 28.971888 147.39062Q28.675013 147.51562 27.721888 147.51562L24.143763 147.51562L24.143763 148.28125L23.331263 148.28125L23.331263 147.51562L21.784388 147.51562L21.159388 146.46875L23.331263 146.46875L23.331263 145.40625L24.143763 145.40625L24.143763 146.46875L27.784388 146.46875Q28.237513 146.46875 28.362513 146.42188Q28.487513 146.35938 28.565638 146.23438Q28.643763 146.10938 28.643763 145.875Q28.643763 145.6875 28.612513 145.40625ZM27.550013 140.45312L27.675013 139.35938Q28.628138 139.60938 29.159388 140.3125Q29.690638 141.01562 29.690638 142.09375Q29.690638 143.45312 28.846888 144.26562Q28.003138 145.0625 26.487513 145.0625Q24.925013 145.0625 24.065638 144.25Q23.190638 143.4375 23.190638 142.15625Q23.190638 140.90625 24.034388 140.125Q24.878138 139.32812 26.425013 139.32812Q26.518763 139.32812 26.706263 139.32812L26.706263 143.96875Q27.737513 143.90625 28.284388 143.39062Q28.815638 142.875 28.815638 142.09375Q28.815638 141.51562 28.518763 141.10938Q28.206263 140.6875 27.550013 140.45312ZM25.846888 143.90625L25.846888 140.4375Q25.050013 140.5 24.659388 140.82812Q24.050013 141.34375 24.050013 142.14062Q24.050013 142.875 24.534388 143.375Q25.018763 143.85938 25.846888 143.90625ZM27.690638 138.125L27.534388 137.09375Q28.159388 137.0 28.487513 136.60938Q28.815638 136.20312 28.815638 135.46875Q28.815638 134.75 28.534388 134.40625Q28.237513 134.04688 27.831263 134.04688Q27.471888 134.04688 27.268763 134.35938Q27.128138 134.57812 26.909388 135.4375Q26.612513 136.59375 26.409388 137.04688Q26.190638 137.48438 25.815638 137.71875Q25.440638 137.95312 24.971888 137.95312Q24.565638 137.95312 24.206263 137.76562Q23.846888 137.57812 23.612513 137.25Q23.440638 137.0 23.315638 136.57812Q23.190638 136.15625 23.190638 135.65625Q23.190638 134.9375 23.409388 134.39062Q23.612513 133.82812 23.971888 133.5625Q24.331263 133.29688 24.925013 133.20312L25.065638 134.23438Q24.596888 134.29688 24.331263 134.64062Q24.050013 134.96875 24.050013 135.59375Q24.050013 136.3125 24.300013 136.625Q24.534388 136.9375 24.862513 136.9375Q25.065638 136.9375 25.221888 136.8125Q25.393763 136.67188 25.503138 136.40625Q25.565638 136.25 25.768763 135.46875Q26.081263 134.34375 26.268763 133.90625Q26.456263 133.46875 26.815638 133.21875Q27.175013 132.96875 27.721888 132.96875Q28.253138 132.96875 28.721888 133.28125Q29.175013 133.57812 29.440638 134.15625Q29.690638 134.73438 29.690638 135.46875Q29.690638 136.6875 29.190638 137.32812Q28.675013 137.95312 27.690638 138.125Z" fill-rule="nonzero"/><path fill="#000000" d="M65.05 332.21564Q65.05 330.6844 65.3625 329.7625Q65.675 328.825 66.28438 328.325Q66.90938 327.825 67.84688 327.825Q68.53438 327.825 69.05 328.10626Q69.58125 328.3875 69.925 328.91876Q70.26875 329.4344 70.45625 330.1844Q70.64375 330.9344 70.64375 332.21564Q70.64375 333.73126 70.33125 334.65314Q70.03438 335.575 69.40938 336.09064Q68.8 336.59064 67.84688 336.59064Q66.6125 336.59064 65.89375 335.7Q65.05 334.6375 65.05 332.21564ZM66.12813 332.21564Q66.12813 334.325 66.62813 335.02814Q67.12813 335.73126 67.84688 335.73126Q68.58125 335.73126 69.06563 335.02814Q69.56563 334.325 69.56563 332.21564Q69.56563 330.09064 69.06563 329.40314Q68.58125 328.7 67.83125 328.7Q67.1125 328.7 66.675 329.3094Q66.12813 330.09064 66.12813 332.21564ZM72.64375 336.45L72.64375 335.2469L73.84688 335.2469L73.84688 336.45L72.64375 336.45ZM75.05 332.21564Q75.05 330.6844 75.3625 329.7625Q75.675 328.825 76.28438 328.325Q76.90938 327.825 77.84688 327.825Q78.53438 327.825 79.05 328.10626Q79.58125 328.3875 79.925 328.91876Q80.26875 329.4344 80.45625 330.1844Q80.64375 330.9344 80.64375 332.21564Q80.64375 333.73126 80.33125 334.65314Q80.03438 335.575 79.40938 336.09064Q78.8 336.59064 77.84688 336.59064Q76.6125 336.59064 75.89375 335.7Q75.05 334.6375 75.05 332.21564ZM76.12813 332.21564Q76.12813 334.325 76.62813 335.02814Q77.12813 335.73126 77.84688 335.73126Q78.58125 335.73126 79.06563 335.02814Q79.56563 334.325 79.56563 332.21564Q79.56563 330.09064 79.06563 329.40314Q78.58125 328.7 77.83125 328.7Q77.1125 328.7 76.675 329.3094Q76.12813 330.09064 76.12813 332.21564ZM82.05 332.21564Q82.05 330.6844 82.3625 329.7625Q82.675 328.825 83.28438 328.325Q83.90938 327.825 84.84688 327.825Q85.53438 327.825 86.05 328.10626Q86.58125 328.3875 86.925 328.91876Q87.26875 329.4344 87.45625 330.1844Q87.64375 330.9344 87.64375 332.21564Q87.64375 333.73126 87.33125 334.65314Q87.03438 335.575 86.40938 336.09064Q85.8 336.59064 84.84688 336.59064Q83.6125 336.59064 82.89375 335.7Q82.05 334.6375 82.05 332.21564ZM83.12813 332.21564Q83.12813 334.325 83.62813 335.02814Q84.12813 335.73126 84.84688 335.73126Q85.58125 335.73126 86.06563 335.02814Q86.56563 334.325 86.56563 332.21564Q86.56563 330.09064 86.06563 329.40314Q85.58125 328.7 84.83125 328.7Q84.1125 328.7 83.675 329.3094Q83.12813 330.09064 83.12813 332.21564ZM89.25313 329.91876Q89.25313 328.9969 89.70625 328.35626Q90.175 327.71564 91.05 327.71564Q91.8625 327.71564 92.39375 328.29376Q92.925 328.8719 92.925 329.98126Q92.925 331.075 92.37813 331.66876Q91.84688 332.2469 91.06563 332.2469Q90.28438 332.2469 89.76875 331.66876Q89.25313 331.09064 89.25313 329.91876ZM91.08125 328.4344Q90.69063 328.4344 90.425 328.77814Q90.175 329.1219 90.175 330.02814Q90.175 330.85626 90.425 331.2Q90.69063 331.52814 91.08125 331.52814Q91.4875 331.52814 91.7375 331.1844Q92.00313 330.84064 92.00313 329.95Q92.00313 329.10626 91.7375 328.77814Q91.47188 328.4344 91.08125 328.4344ZM91.08125 336.7625L95.78438 327.71564L96.64375 327.71564L91.95625 336.7625L91.08125 336.7625ZM94.8 334.4344Q94.8 333.5125 95.25313 332.8719Q95.72188 332.23126 96.6125 332.23126Q97.425 332.23126 97.95625 332.8094Q98.4875 333.3719 98.4875 334.4969Q98.4875 335.59064 97.94063 336.1844Q97.40938 336.7625 96.6125 336.7625Q95.84688 336.7625 95.31563 336.1844Q94.8 335.60626 94.8 334.4344ZM96.64375 332.95Q96.2375 332.95 95.97188 333.29376Q95.72188 333.6375 95.72188 334.54376Q95.72188 335.35626 95.9875 335.7Q96.25313 336.04376 96.64375 336.04376Q97.03438 336.04376 97.3 335.7Q97.56563 335.35626 97.56563 334.45Q97.56563 333.6219 97.3 333.29376Q97.03438 332.95 96.64375 332.95Z" fill-rule="nonzero"/><path fill="#000000" d="M63.596874 258.70938L63.596874 259.725L57.909374 259.725Q57.909374 259.35 58.034374 258.99063Q58.253124 258.4125 58.721874 257.85Q59.20625 257.2875 60.1125 256.55313Q61.51875 255.39688 62.003124 254.725Q62.503124 254.05313 62.503124 253.45938Q62.503124 252.83438 62.05 252.4125Q61.596874 251.975 60.878124 251.975Q60.1125 251.975 59.659374 252.42813Q59.20625 252.88126 59.190624 253.69376L58.1125 253.58438Q58.221874 252.36563 58.940624 251.74063Q59.675 251.1 60.909374 251.1Q62.14375 251.1 62.8625 251.7875Q63.58125 252.475 63.58125 253.49063Q63.58125 254.00626 63.3625 254.50626Q63.159374 254.99063 62.659374 255.55313Q62.175 256.1 61.05 257.05313Q60.096874 257.85 59.815624 258.14688Q59.55 258.42813 59.378124 258.70938L63.596874 258.70938ZM65.05 257.475L66.15938 257.38126Q66.28438 258.19376 66.72188 258.6Q67.175 259.00626 67.81563 259.00626Q68.56563 259.00626 69.09688 258.42813Q69.62813 257.85 69.62813 256.9125Q69.62813 256.00626 69.1125 255.49063Q68.6125 254.95938 67.78438 254.95938Q67.28438 254.95938 66.8625 255.19376Q66.45625 255.42813 66.22188 255.7875L65.2375 255.6625L66.06563 251.25626L70.34688 251.25626L70.34688 252.25626L66.90938 252.25626L66.45625 254.56876Q67.22188 254.02188 68.06563 254.02188Q69.19063 254.02188 69.95625 254.80313Q70.7375 255.58438 70.7375 256.81876Q70.7375 257.975 70.06563 258.83438Q69.2375 259.86563 67.81563 259.86563Q66.64375 259.86563 65.89375 259.20938Q65.15938 258.55313 65.05 257.475ZM72.64375 259.725L72.64375 258.52188L73.84688 258.52188L73.84688 259.725L72.64375 259.725ZM75.05 255.49063Q75.05 253.95938 75.3625 253.0375Q75.675 252.1 76.28438 251.6Q76.90938 251.1 77.84688 251.1Q78.53438 251.1 79.05 251.38126Q79.58125 251.6625 79.925 252.19376Q80.26875 252.70938 80.45625 253.45938Q80.64375 254.20938 80.64375 255.49063Q80.64375 257.00626 80.33125 257.92813Q80.03438 258.85 79.40938 259.36563Q78.8 259.86563 77.84688 259.86563Q76.6125 259.86563 75.89375 258.975Q75.05 257.9125 75.05 255.49063ZM76.12813 255.49063Q76.12813 257.6 76.62813 258.30313Q77.12813 259.00626 77.84688 259.00626Q78.58125 259.00626 79.06563 258.30313Q79.56563 257.6 79.56563 255.49063Q79.56563 253.36563 79.06563 252.67813Q78.58125 251.975 77.83125 251.975Q77.1125 251.975 76.675 252.58438Q76.12813 253.36563 76.12813 255.49063ZM82.05 255.49063Q82.05 253.95938 82.3625 253.0375Q82.675 252.1 83.28438 251.6Q83.90938 251.1 84.84688 251.1Q85.53438 251.1 86.05 251.38126Q86.58125 251.6625 86.925 252.19376Q87.26875 252.70938 87.45625 253.45938Q87.64375 254.20938 87.64375 255.49063Q87.64375 257.00626 87.33125 257.92813Q87.03438 258.85 86.40938 259.36563Q85.8 259.86563 84.84688 259.86563Q83.6125 259.86563 82.89375 258.975Q82.05 257.9125 82.05 255.49063ZM83.12813 255.49063Q83.12813 257.6 83.62813 258.30313Q84.12813 259.00626 84.84688 259.00626Q85.58125 259.00626 86.06563 258.30313Q86.56563 257.6 86.56563 255.49063Q86.56563 253.36563 86.06563 252.67813Q85.58125 251.975 84.83125 251.975Q84.1125 251.975 83.675 252.58438Q83.12813 253.36563 83.12813 255.49063ZM89.25313 253.19376Q89.25313 252.27188 89.70625 251.63126Q90.175 250.99063 91.05 250.99063Q91.8625 250.99063 92.39375 251.56876Q92.925 252.14688 92.925 253.25626Q92.925 254.35 92.37813 254.94376Q91.84688 255.52188 91.06563 255.52188Q90.28438 255.52188 89.76875 254.94376Q89.25313 254.36563 89.25313 253.19376ZM91.08125 251.70938Q90.69063 251.70938 90.425 252.05313Q90.175 252.39688 90.175 253.30313Q90.175 254.13126 90.425 254.475Q90.69063 254.80313 91.08125 254.80313Q91.4875 254.80313 91.7375 254.45938Q92.00313 254.11563 92.00313 253.225Q92.00313 252.38126 91.7375 252.05313Q91.47188 251.70938 91.08125 251.70938ZM91.08125 260.0375L95.78438 250.99063L96.64375 250.99063L91.95625 260.0375L91.08125 260.0375ZM94.8 257.70938Q94.8 256.7875 95.25313 256.14688Q95.72188 255.50626 96.6125 255.50626Q97.425 255.50626 97.95625 256.08438Q98.4875 256.64688 98.4875 257.77188Q98.4875 258.86563 97.94063 259.45938Q97.40938 260.0375 96.6125 260.0375Q95.84688 260.0375 95.31563 259.45938Q94.8 258.88126 94.8 257.70938ZM96.64375 256.225Q96.2375 256.225 95.97188 256.56876Q95.72188 256.9125 95.72188 257.81876Q95.72188 258.63126 95.9875 258.975Q96.25313 259.31876 96.64375 259.31876Q97.03438 259.31876 97.3 258.975Q97.56563 258.63126 97.56563 257.725Q97.56563 256.89688 97.3 256.56876Q97.03438 256.225 96.64375 256.225Z" fill-rule="nonzero"/><path fill="#000000" d="M58.05 180.75L59.159374 180.65625Q59.284374 181.46875 59.721874 181.875Q60.175 182.28125 60.815624 182.28125Q61.565624 182.28125 62.096874 181.70312Q62.628124 181.125 62.628124 180.1875Q62.628124 179.28125 62.1125 178.76562Q61.6125 178.23438 60.784374 178.23438Q60.284374 178.23438 59.8625 178.46875Q59.45625 178.70312 59.221874 179.0625L58.2375 178.9375L59.065624 174.53125L63.346874 174.53125L63.346874 175.53125L59.909374 175.53125L59.45625 177.84375Q60.221874 177.29688 61.065624 177.29688Q62.190624 177.29688 62.95625 178.07812Q63.7375 178.85938 63.7375 180.09375Q63.7375 181.25 63.065624 182.10938Q62.2375 183.14062 60.815624 183.14062Q59.64375 183.14062 58.89375 182.48438Q58.159374 181.82812 58.05 180.75ZM65.05 178.76562Q65.05 177.23438 65.3625 176.3125Q65.675 175.375 66.28438 174.875Q66.90938 174.375 67.84688 174.375Q68.53438 174.375 69.05 174.65625Q69.58125 174.9375 69.925 175.46875Q70.26875 175.98438 70.45625 176.73438Q70.64375 177.48438 70.64375 178.76562Q70.64375 180.28125 70.33125 181.20312Q70.03438 182.125 69.40938 182.64062Q68.8 183.14062 67.84688 183.14062Q66.6125 183.14062 65.89375 182.25Q65.05 181.1875 65.05 178.76562ZM66.12813 178.76562Q66.12813 180.875 66.62813 181.57812Q67.12813 182.28125 67.84688 182.28125Q68.58125 182.28125 69.06563 181.57812Q69.56563 180.875 69.56563 178.76562Q69.56563 176.64062 69.06563 175.95312Q68.58125 175.25 67.83125 175.25Q67.1125 175.25 66.675 175.85938Q66.12813 176.64062 66.12813 178.76562ZM72.64375 183.0L72.64375 181.79688L73.84688 181.79688L73.84688 183.0L72.64375 183.0ZM75.05 178.76562Q75.05 177.23438 75.3625 176.3125Q75.675 175.375 76.28438 174.875Q76.90938 174.375 77.84688 174.375Q78.53438 174.375 79.05 174.65625Q79.58125 174.9375 79.925 175.46875Q80.26875 175.98438 80.45625 176.73438Q80.64375 177.48438 80.64375 178.76562Q80.64375 180.28125 80.33125 181.20312Q80.03438 182.125 79.40938 182.64062Q78.8 183.14062 77.84688 183.14062Q76.6125 183.14062 75.89375 182.25Q75.05 181.1875 75.05 178.76562ZM76.12813 178.76562Q76.12813 180.875 76.62813 181.57812Q77.12813 182.28125 77.84688 182.28125Q78.58125 182.28125 79.06563 181.57812Q79.56563 180.875 79.56563 178.76562Q79.56563 176.64062 79.06563 175.95312Q78.58125 175.25 77.83125 175.25Q77.1125 175.25 76.675 175.85938Q76.12813 176.64062 76.12813 178.76562ZM82.05 178.76562Q82.05 177.23438 82.3625 176.3125Q82.675 175.375 83.28438 174.875Q83.90938 174.375 84.84688 174.375Q85.53438 174.375 86.05 174.65625Q86.58125 174.9375 86.925 175.46875Q87.26875 175.98438 87.45625 176.73438Q87.64375 177.48438 87.64375 178.76562Q87.64375 180.28125 87.33125 181.20312Q87.03438 182.125 86.40938 182.64062Q85.8 183.14062 84.84688 183.14062Q83.6125 183.14062 82.89375 182.25Q82.05 181.1875 82.05 178.76562ZM83.12813 178.76562Q83.12813 180.875 83.62813 181.57812Q84.12813 182.28125 84.84688 182.28125Q85.58125 182.28125 86.06563 181.57812Q86.56563 180.875 86.56563 178.76562Q86.56563 176.64062 86.06563 175.95312Q85.58125 175.25 84.83125 175.25Q84.1125 175.25 83.675 175.85938Q83.12813 176.64062 83.12813 178.76562ZM89.25313 176.46875Q89.25313 175.54688 89.70625 174.90625Q90.175 174.26562 91.05 174.26562Q91.8625 174.26562 92.39375 174.84375Q92.925 175.42188 92.925 176.53125Q92.925 177.625 92.37813 178.21875Q91.84688 178.79688 91.06563 178.79688Q90.28438 178.79688 89.76875 178.21875Q89.25313 177.64062 89.25313 176.46875ZM91.08125 174.98438Q90.69063 174.98438 90.425 175.32812Q90.175 175.67188 90.175 176.57812Q90.175 177.40625 90.425 177.75Q90.69063 178.07812 91.08125 178.07812Q91.4875 178.07812 91.7375 177.73438Q92.00313 177.39062 92.00313 176.5Q92.00313 175.65625 91.7375 175.32812Q91.47188 174.98438 91.08125 174.98438ZM91.08125 183.3125L95.78438 174.26562L96.64375 174.26562L91.95625 183.3125L91.08125 183.3125ZM94.8 180.98438Q94.8 180.0625 95.25313 179.42188Q95.72188 178.78125 96.6125 178.78125Q97.425 178.78125 97.95625 179.35938Q98.4875 179.92188 98.4875 181.04688Q98.4875 182.14062 97.94063 182.73438Q97.40938 183.3125 96.6125 183.3125Q95.84688 183.3125 95.31563 182.73438Q94.8 182.15625 94.8 180.98438ZM96.64375 179.5Q96.2375 179.5 95.97188 179.84375Q95.72188 180.1875 95.72188 181.09375Q95.72188 181.90625 95.9875 182.25Q96.25313 182.59375 96.64375 182.59375Q97.03438 182.59375 97.3 182.25Q97.56563 181.90625 97.56563 181.0Q97.56563 180.17188 97.3 179.84375Q97.03438 179.5 96.64375 179.5Z" fill-rule="nonzero"/><path fill="#000000" d="M58.1125 98.80625L58.1125 97.79063L63.675 97.79063L63.675 98.61875Q62.8625 99.49375 62.05 100.94688Q61.253124 102.38438 60.815624 103.91563Q60.4875 104.99375 60.409374 106.275L59.315624 106.275Q59.33125 105.25938 59.70625 103.82188Q60.096874 102.38438 60.8 101.05625Q61.51875 99.72813 62.33125 98.80625L58.1125 98.80625ZM65.05 104.025L66.15938 103.93125Q66.28438 104.74375 66.72188 105.15Q67.175 105.55625 67.81563 105.55625Q68.56563 105.55625 69.09688 104.97813Q69.62813 104.4 69.62813 103.4625Q69.62813 102.55625 69.1125 102.04063Q68.6125 101.50938 67.78438 101.50938Q67.28438 101.50938 66.8625 101.74375Q66.45625 101.97813 66.22188 102.3375L65.2375 102.2125L66.06563 97.80625L70.34688 97.80625L70.34688 98.80625L66.90938 98.80625L66.45625 101.11875Q67.22188 100.57188 68.06563 100.57188Q69.19063 100.57188 69.95625 101.35313Q70.7375 102.13438 70.7375 103.36875Q70.7375 104.525 70.06563 105.38438Q69.2375 106.41563 67.81563 106.41563Q66.64375 106.41563 65.89375 105.75938Q65.15938 105.10313 65.05 104.025ZM72.64375 106.275L72.64375 105.07188L73.84688 105.07188L73.84688 106.275L72.64375 106.275ZM75.05 102.04063Q75.05 100.50938 75.3625 99.5875Q75.675 98.65 76.28438 98.15Q76.90938 97.65 77.84688 97.65Q78.53438 97.65 79.05 97.93125Q79.58125 98.2125 79.925 98.74375Q80.26875 99.25938 80.45625 100.00938Q80.64375 100.75938 80.64375 102.04063Q80.64375 103.55625 80.33125 104.47813Q80.03438 105.4 79.40938 105.91563Q78.8 106.41563 77.84688 106.41563Q76.6125 106.41563 75.89375 105.525Q75.05 104.4625 75.05 102.04063ZM76.12813 102.04063Q76.12813 104.15 76.62813 104.85313Q77.12813 105.55625 77.84688 105.55625Q78.58125 105.55625 79.06563 104.85313Q79.56563 104.15 79.56563 102.04063Q79.56563 99.91563 79.06563 99.22813Q78.58125 98.525 77.83125 98.525Q77.1125 98.525 76.675 99.13438Q76.12813 99.91563 76.12813 102.04063ZM82.05 102.04063Q82.05 100.50938 82.3625 99.5875Q82.675 98.65 83.28438 98.15Q83.90938 97.65 84.84688 97.65Q85.53438 97.65 86.05 97.93125Q86.58125 98.2125 86.925 98.74375Q87.26875 99.25938 87.45625 100.00938Q87.64375 100.75938 87.64375 102.04063Q87.64375 103.55625 87.33125 104.47813Q87.03438 105.4 86.40938 105.91563Q85.8 106.41563 84.84688 106.41563Q83.6125 106.41563 82.89375 105.525Q82.05 104.4625 82.05 102.04063ZM83.12813 102.04063Q83.12813 104.15 83.62813 104.85313Q84.12813 105.55625 84.84688 105.55625Q85.58125 105.55625 86.06563 104.85313Q86.56563 104.15 86.56563 102.04063Q86.56563 99.91563 86.06563 99.22813Q85.58125 98.525 84.83125 98.525Q84.1125 98.525 83.675 99.13438Q83.12813 99.91563 83.12813 102.04063ZM89.25313 99.74375Q89.25313 98.82188 89.70625 98.18125Q90.175 97.54063 91.05 97.54063Q91.8625 97.54063 92.39375 98.11875Q92.925 98.69688 92.925 99.80625Q92.925 100.9 92.37813 101.49375Q91.84688 102.07188 91.06563 102.07188Q90.28438 102.07188 89.76875 101.49375Q89.25313 100.91563 89.25313 99.74375ZM91.08125 98.25938Q90.69063 98.25938 90.425 98.60313Q90.175 98.94688 90.175 99.85313Q90.175 100.68125 90.425 101.025Q90.69063 101.35313 91.08125 101.35313Q91.4875 101.35313 91.7375 101.00938Q92.00313 100.66563 92.00313 99.775Q92.00313 98.93125 91.7375 98.60313Q91.47188 98.25938 91.08125 98.25938ZM91.08125 106.5875L95.78438 97.54063L96.64375 97.54063L91.95625 106.5875L91.08125 106.5875ZM94.8 104.25938Q94.8 103.3375 95.25313 102.69688Q95.72188 102.05625 96.6125 102.05625Q97.425 102.05625 97.95625 102.63438Q98.4875 103.19688 98.4875 104.32188Q98.4875 105.41563 97.94063 106.00938Q97.40938 106.5875 96.6125 106.5875Q95.84688 106.5875 95.31563 106.00938Q94.8 105.43125 94.8 104.25938ZM96.64375 102.775Q96.2375 102.775 95.97188 103.11875Q95.72188 103.4625 95.72188 104.36875Q95.72188 105.18125 95.9875 105.525Q96.25313 105.86875 96.64375 105.86875Q97.03438 105.86875 97.3 105.525Q97.56563 105.18125 97.56563 104.275Q97.56563 103.44688 97.3 103.11875Q97.03438 102.775 96.64375 102.775Z" fill-rule="nonzero"/><path fill="#000000" d="M55.01875 29.55L53.971874 29.55L53.971874 22.83125Q53.58125 23.190624 52.95625 23.565624Q52.346874 23.925 51.8625 24.096874L51.8625 23.08125Q52.7375 22.659374 53.39375 22.08125Q54.065624 21.4875 54.346874 20.925L55.01875 20.925L55.01875 29.55ZM58.05 25.315624Q58.05 23.784374 58.3625 22.8625Q58.675 21.925 59.284374 21.425Q59.909374 20.925 60.846874 20.925Q61.534374 20.925 62.05 21.20625Q62.58125 21.4875 62.925 22.01875Q63.26875 22.534374 63.45625 23.284374Q63.64375 24.034374 63.64375 25.315624Q63.64375 26.83125 63.33125 27.753124Q63.034374 28.675 62.409374 29.190624Q61.8 29.690624 60.846874 29.690624Q59.6125 29.690624 58.89375 28.8Q58.05 27.7375 58.05 25.315624ZM59.128124 25.315624Q59.128124 27.425 59.628124 28.128124Q60.128124 28.83125 60.846874 28.83125Q61.58125 28.83125 62.065624 28.128124Q62.565624 27.425 62.565624 25.315624Q62.565624 23.190624 62.065624 22.503124Q61.58125 21.8 60.83125 21.8Q60.1125 21.8 59.675 22.409374Q59.128124 23.190624 59.128124 25.315624ZM65.05 25.315624Q65.05 23.784374 65.3625 22.8625Q65.675 21.925 66.28438 21.425Q66.90938 20.925 67.84688 20.925Q68.53438 20.925 69.05 21.20625Q69.58125 21.4875 69.925 22.01875Q70.26875 22.534374 70.45625 23.284374Q70.64375 24.034374 70.64375 25.315624Q70.64375 26.83125 70.33125 27.753124Q70.03438 28.675 69.40938 29.190624Q68.8 29.690624 67.84688 29.690624Q66.6125 29.690624 65.89375 28.8Q65.05 27.7375 65.05 25.315624ZM66.12813 25.315624Q66.12813 27.425 66.62813 28.128124Q67.12813 28.83125 67.84688 28.83125Q68.58125 28.83125 69.06563 28.128124Q69.56563 27.425 69.56563 25.315624Q69.56563 23.190624 69.06563 22.503124Q68.58125 21.8 67.83125 21.8Q67.1125 21.8 66.675 22.409374Q66.12813 23.190624 66.12813 25.315624ZM72.64375 29.55L72.64375 28.346874L73.84688 28.346874L73.84688 29.55L72.64375 29.55ZM75.05 25.315624Q75.05 23.784374 75.3625 22.8625Q75.675 21.925 76.28438 21.425Q76.90938 20.925 77.84688 20.925Q78.53438 20.925 79.05 21.20625Q79.58125 21.4875 79.925 22.01875Q80.26875 22.534374 80.45625 23.284374Q80.64375 24.034374 80.64375 25.315624Q80.64375 26.83125 80.33125 27.753124Q80.03438 28.675 79.40938 29.190624Q78.8 29.690624 77.84688 29.690624Q76.6125 29.690624 75.89375 28.8Q75.05 27.7375 75.05 25.315624ZM76.12813 25.315624Q76.12813 27.425 76.62813 28.128124Q77.12813 28.83125 77.84688 28.83125Q78.58125 28.83125 79.06563 28.128124Q79.56563 27.425 79.56563 25.315624Q79.56563 23.190624 79.06563 22.503124Q78.58125 21.8 77.83125 21.8Q77.1125 21.8 76.675 22.409374Q76.12813 23.190624 76.12813 25.315624ZM82.05 25.315624Q82.05 23.784374 82.3625 22.8625Q82.675 21.925 83.28438 21.425Q83.90938 20.925 84.84688 20.925Q85.53438 20.925 86.05 21.20625Q86.58125 21.4875 86.925 22.01875Q87.26875 22.534374 87.45625 23.284374Q87.64375 24.034374 87.64375 25.315624Q87.64375 26.83125 87.33125 27.753124Q87.03438 28.675 86.40938 29.190624Q85.8 29.690624 84.84688 29.690624Q83.6125 29.690624 82.89375 28.8Q82.05 27.7375 82.05 25.315624ZM83.12813 25.315624Q83.12813 27.425 83.62813 28.128124Q84.12813 28.83125 84.84688 28.83125Q85.58125 28.83125 86.06563 28.128124Q86.56563 27.425 86.56563 25.315624Q86.56563 23.190624 86.06563 22.503124Q85.58125 21.8 84.83125 21.8Q84.1125 21.8 83.675 22.409374Q83.12813 23.190624 83.12813 25.315624ZM89.25313 23.01875Q89.25313 22.096874 89.70625 21.45625Q90.175 20.815624 91.05 20.815624Q91.8625 20.815624 92.39375 21.39375Q92.925 21.971874 92.925 23.08125Q92.925 24.175 92.37813 24.76875Q91.84688 25.346874 91.06563 25.346874Q90.28438 25.346874 89.76875 24.76875Q89.25313 24.190624 89.25313 23.01875ZM91.08125 21.534374Q90.69063 21.534374 90.425 21.878124Q90.175 22.221874 90.175 23.128124Q90.175 23.95625 90.425 24.3Q90.69063 24.628124 91.08125 24.628124Q91.4875 24.628124 91.7375 24.284374Q92.00313 23.940624 92.00313 23.05Q92.00313 22.20625 91.7375 21.878124Q91.47188 21.534374 91.08125 21.534374ZM91.08125 29.8625L95.78438 20.815624L96.64375 20.815624L91.95625 29.8625L91.08125 29.8625ZM94.8 27.534374Q94.8 26.6125 95.25313 25.971874Q95.72188 25.33125 96.6125 25.33125Q97.425 25.33125 97.95625 25.909374Q98.4875 26.471874 98.4875 27.596874Q98.4875 28.690624 97.94063 29.284374Q97.40938 29.8625 96.6125 29.8625Q95.84688 29.8625 95.31563 29.284374Q94.8 28.70625 94.8 27.534374ZM96.64375 26.05Q96.2375 26.05 95.97188 26.39375Q95.72188 26.7375 95.72188 27.64375Q95.72188 28.45625 95.9875 28.8Q96.25313 29.14375 96.64375 29.14375Q97.03438 29.14375 97.3 28.8Q97.56563 28.45625 97.56563 27.55Q97.56563 26.721874 97.3 26.39375Q97.03438 26.05 96.64375 26.05Z" fill-rule="nonzero"/><path fill="#000000" d="M177.50279 346.4344L178.62779 346.73126Q178.26842 348.1219 177.34654 348.85626Q176.42467 349.59064 175.08092 349.59064Q173.69029 349.59064 172.81529 349.02814Q171.94029 348.46564 171.48717 347.40314Q171.03404 346.325 171.03404 345.09064Q171.03404 343.7469 171.54967 342.7469Q172.06529 341.7469 173.00279 341.23126Q173.95592 340.71564 175.09654 340.71564Q176.37779 340.71564 177.25279 341.3719Q178.14342 342.02814 178.48717 343.21564L177.36217 343.48126Q177.06529 342.54376 176.48717 342.1219Q175.92467 341.6844 175.06529 341.6844Q174.08092 341.6844 173.40904 342.16876Q172.75279 342.6375 172.47154 343.4344Q172.20592 344.23126 172.20592 345.09064Q172.20592 346.1844 172.51842 346.9969Q172.84654 347.8094 173.51842 348.21564Q174.19029 348.6219 174.98717 348.6219Q175.94029 348.6219 176.59654 348.075Q177.26842 347.52814 177.50279 346.4344ZM186.50279 346.4344L187.62779 346.73126Q187.26842 348.1219 186.34654 348.85626Q185.42467 349.59064 184.08092 349.59064Q182.69029 349.59064 181.81529 349.02814Q180.94029 348.46564 180.48717 347.40314Q180.03404 346.325 180.03404 345.09064Q180.03404 343.7469 180.54967 342.7469Q181.06529 341.7469 182.00279 341.23126Q182.95592 340.71564 184.09654 340.71564Q185.37779 340.71564 186.25279 341.3719Q187.14342 342.02814 187.48717 343.21564L186.36217 343.48126Q186.06529 342.54376 185.48717 342.1219Q184.92467 341.6844 184.06529 341.6844Q183.08092 341.6844 182.40904 342.16876Q181.75279 342.6375 181.47154 343.4344Q181.20592 344.23126 181.20592 345.09064Q181.20592 346.1844 181.51842 346.9969Q181.84654 347.8094 182.51842 348.21564Q183.19029 348.6219 183.98717 348.6219Q184.94029 348.6219 185.59654 348.075Q186.26842 347.52814 186.50279 346.4344ZM191.98717 346.6844L193.04967 346.59064Q193.12779 347.2469 193.40904 347.65314Q193.69029 348.0594 194.26842 348.325Q194.86217 348.575 195.59654 348.575Q196.23717 348.575 196.73717 348.3875Q197.23717 348.1844 197.47154 347.85626Q197.72154 347.5125 197.72154 347.1219Q197.72154 346.71564 197.48717 346.41876Q197.25279 346.10626 196.72154 345.90314Q196.36217 345.7625 195.17467 345.48126Q194.00279 345.2 193.53404 344.95Q192.90904 344.6219 192.61217 344.15314Q192.31529 343.66876 192.31529 343.075Q192.31529 342.4344 192.67467 341.8719Q193.04967 341.29376 193.75279 341.0125Q194.47154 340.71564 195.33092 340.71564Q196.28404 340.71564 197.01842 341.02814Q197.75279 341.325 198.14342 341.9344Q198.53404 342.52814 198.56529 343.27814L197.47154 343.35626Q197.37779 342.54376 196.86217 342.1375Q196.36217 341.71564 195.37779 341.71564Q194.34654 341.71564 193.87779 342.09064Q193.40904 342.46564 193.40904 342.9969Q193.40904 343.46564 193.73717 343.7625Q194.06529 344.0594 195.44029 344.3719Q196.83092 344.6844 197.34654 344.91876Q198.09654 345.27814 198.45592 345.8094Q198.81529 346.325 198.81529 347.02814Q198.81529 347.71564 198.42467 348.325Q198.03404 348.91876 197.29967 349.2625Q196.56529 349.59064 195.64342 349.59064Q194.47154 349.59064 193.67467 349.2625Q192.89342 348.91876 192.44029 348.23126Q192.00279 347.54376 191.98717 346.6844ZM200.19029 351.84064L200.06529 350.85626Q200.40904 350.95 200.67467 350.95Q201.01842 350.95 201.22154 350.825Q201.44029 350.71564 201.58092 350.5125Q201.67467 350.34064 201.90904 349.71564Q201.92467 349.6375 202.00279 349.46564L199.62779 343.23126L200.76842 343.23126L202.06529 346.825Q202.31529 347.5125 202.51842 348.27814Q202.70592 347.54376 202.95592 346.85626L204.28404 343.23126L205.33092 343.23126L202.97154 349.5594Q202.58092 350.575 202.37779 350.96564Q202.09654 351.4969 201.72154 351.73126Q201.36217 351.98126 200.86217 351.98126Q200.56529 351.98126 200.19029 351.84064ZM204.81529 347.59064L205.84654 347.4344Q205.94029 348.0594 206.33092 348.3875Q206.73717 348.71564 207.47154 348.71564Q208.19029 348.71564 208.53404 348.4344Q208.89342 348.1375 208.89342 347.73126Q208.89342 347.3719 208.58092 347.16876Q208.36217 347.02814 207.50279 346.8094Q206.34654 346.5125 205.89342 346.3094Q205.45592 346.09064 205.22154 345.71564Q204.98717 345.34064 204.98717 344.8719Q204.98717 344.46564 205.17467 344.10626Q205.36217 343.7469 205.69029 343.5125Q205.94029 343.34064 206.36217 343.21564Q206.78404 343.09064 207.28404 343.09064Q208.00279 343.09064 208.54967 343.3094Q209.11217 343.5125 209.37779 343.8719Q209.64342 344.23126 209.73717 344.825L208.70592 344.96564Q208.64342 344.4969 208.29967 344.23126Q207.97154 343.95 207.34654 343.95Q206.62779 343.95 206.31529 344.2Q206.00279 344.4344 206.00279 344.7625Q206.00279 344.96564 206.12779 345.1219Q206.26842 345.29376 206.53404 345.40314Q206.69029 345.46564 207.47154 345.66876Q208.59654 345.98126 209.03404 346.16876Q209.47154 346.35626 209.72154 346.71564Q209.97154 347.075 209.97154 347.6219Q209.97154 348.15314 209.65904 348.6219Q209.36217 349.075 208.78404 349.34064Q208.20592 349.59064 207.47154 349.59064Q206.25279 349.59064 205.61217 349.09064Q204.98717 348.575 204.81529 347.59064ZM214.53404 348.5125L214.69029 349.4344Q214.23717 349.52814 213.89342 349.52814Q213.31529 349.52814 213.00279 349.35626Q212.69029 349.16876 212.54967 348.8719Q212.42467 348.575 212.42467 347.6219L212.42467 344.04376L211.65904 344.04376L211.65904 343.23126L212.42467 343.23126L212.42467 341.6844L213.47154 341.0594L213.47154 343.23126L214.53404 343.23126L214.53404 344.04376L213.47154 344.04376L213.47154 347.6844Q213.47154 348.1375 213.51842 348.2625Q213.58092 348.3875 213.70592 348.46564Q213.83092 348.54376 214.06529 348.54376Q214.25279 348.54376 214.53404 348.5125ZM219.48717 347.45L220.58092 347.575Q220.33092 348.52814 219.62779 349.0594Q218.92467 349.59064 217.84654 349.59064Q216.48717 349.59064 215.67467 348.7469Q214.87779 347.90314 214.87779 346.3875Q214.87779 344.825 215.69029 343.96564Q216.50279 343.09064 217.78404 343.09064Q219.03404 343.09064 219.81529 343.9344Q220.61217 344.77814 220.61217 346.325Q220.61217 346.41876 220.61217 346.60626L215.97154 346.60626Q216.03404 347.6375 216.54967 348.1844Q217.06529 348.71564 217.84654 348.71564Q218.42467 348.71564 218.83092 348.41876Q219.25279 348.10626 219.48717 347.45ZM216.03404 345.7469L219.50279 345.7469Q219.44029 344.95 219.11217 344.5594Q218.59654 343.95 217.79967 343.95Q217.06529 343.95 216.56529 344.4344Q216.08092 344.91876 216.03404 345.7469ZM222.23717 349.45L222.23717 343.23126L223.17467 343.23126L223.17467 344.10626Q223.47154 343.6375 223.95592 343.3719Q224.44029 343.09064 225.06529 343.09064Q225.75279 343.09064 226.19029 343.3719Q226.64342 343.65314 226.81529 344.16876Q227.56529 343.09064 228.73717 343.09064Q229.67467 343.09064 230.15904 343.60626Q230.65904 344.10626 230.65904 345.1844L230.65904 349.45L229.61217 349.45L229.61217 345.52814Q229.61217 344.90314 229.50279 344.6219Q229.40904 344.34064 229.14342 344.16876Q228.87779 343.9969 228.50279 343.9969Q227.84654 343.9969 227.40904 344.4344Q226.98717 344.8719 226.98717 345.84064L226.98717 349.45L225.92467 349.45L225.92467 345.40314Q225.92467 344.7 225.65904 344.35626Q225.40904 343.9969 224.83092 343.9969Q224.37779 343.9969 224.00279 344.23126Q223.62779 344.46564 223.45592 344.91876Q223.28404 345.3719 223.28404 346.21564L223.28404 349.45L222.23717 349.45Z" fill-rule="nonzero"/><path fill="#000000" d="M325.5625 346.4344L326.6875 346.73126Q326.32812 348.1219 325.40625 348.85626Q324.48438 349.59064 323.14062 349.59064Q321.75 349.59064 320.875 349.02814Q320.0 348.46564 319.54688 347.40314Q319.09375 346.325 319.09375 345.09064Q319.09375 343.7469 319.60938 342.7469Q320.125 341.7469 321.0625 341.23126Q322.01562 340.71564 323.15625 340.71564Q324.4375 340.71564 325.3125 341.3719Q326.20312 342.02814 326.54688 343.21564L325.42188 343.48126Q325.125 342.54376 324.54688 342.1219Q323.98438 341.6844 323.125 341.6844Q322.14062 341.6844 321.46875 342.16876Q320.8125 342.6375 320.53125 343.4344Q320.26562 344.23126 320.26562 345.09064Q320.26562 346.1844 320.57812 346.9969Q320.90625 347.8094 321.57812 348.21564Q322.25 348.6219 323.04688 348.6219Q324.0 348.6219 324.65625 348.075Q325.32812 347.52814 325.5625 346.4344ZM328.29688 349.45L328.29688 340.85626L329.34375 340.85626L329.34375 343.9344Q330.07812 343.09064 331.20312 343.09064Q331.90625 343.09064 332.40625 343.3719Q332.92188 343.6375 333.14062 344.1219Q333.35938 344.59064 333.35938 345.5125L333.35938 349.45L332.3125 349.45L332.3125 345.5125Q332.3125 344.71564 331.96875 344.35626Q331.625 343.9969 331.0 343.9969Q330.53125 343.9969 330.10938 344.2469Q329.70312 344.48126 329.51562 344.90314Q329.34375 345.3094 329.34375 346.04376L329.34375 349.45L328.29688 349.45ZM339.35938 348.6844Q338.76562 349.1844 338.21875 349.3875Q337.6875 349.59064 337.0625 349.59064Q336.03125 349.59064 335.48438 349.09064Q334.9375 348.59064 334.9375 347.8094Q334.9375 347.35626 335.14062 346.98126Q335.34375 346.59064 335.6875 346.3719Q336.03125 346.1375 336.45312 346.02814Q336.75 345.9344 337.39062 345.85626Q338.65625 345.71564 339.26562 345.4969Q339.26562 345.27814 339.26562 345.23126Q339.26562 344.575 338.96875 344.3094Q338.5625 343.96564 337.76562 343.96564Q337.03125 343.96564 336.67188 344.23126Q336.3125 344.48126 336.14062 345.1375L335.10938 344.9969Q335.25 344.34064 335.57812 343.9344Q335.90625 343.52814 336.51562 343.3094Q337.125 343.09064 337.92188 343.09064Q338.71875 343.09064 339.21875 343.27814Q339.71875 343.46564 339.95312 343.7469Q340.1875 344.02814 340.28125 344.46564Q340.32812 344.73126 340.32812 345.4344L340.32812 346.84064Q340.32812 348.3094 340.39062 348.7Q340.46875 349.09064 340.67188 349.45L339.5625 349.45Q339.40625 349.1219 339.35938 348.6844ZM339.26562 346.325Q338.6875 346.5594 337.54688 346.73126Q336.89062 346.825 336.625 346.95Q336.35938 347.0594 336.20312 347.27814Q336.0625 347.4969 336.0625 347.77814Q336.0625 348.2 336.375 348.48126Q336.70312 348.7625 337.3125 348.7625Q337.92188 348.7625 338.39062 348.4969Q338.875 348.23126 339.09375 347.7625Q339.26562 347.40314 339.26562 346.71564L339.26562 346.325ZM344.59375 348.5125L344.75 349.4344Q344.29688 349.52814 343.95312 349.52814Q343.375 349.52814 343.0625 349.35626Q342.75 349.16876 342.60938 348.8719Q342.48438 348.575 342.48438 347.6219L342.48438 344.04376L341.71875 344.04376L341.71875 343.23126L342.48438 343.23126L342.48438 341.6844L343.53125 341.0594L343.53125 343.23126L344.59375 343.23126L344.59375 344.04376L343.53125 344.04376L343.53125 347.6844Q343.53125 348.1375 343.57812 348.2625Q343.64062 348.3875 343.76562 348.46564Q343.89062 348.54376 344.125 348.54376Q344.3125 348.54376 344.59375 348.5125ZM349.45312 346.075L349.45312 345.075L353.07812 345.0594L353.07812 348.2469Q352.25 348.91876 351.35938 349.2625Q350.46875 349.59064 349.53125 349.59064Q348.26562 349.59064 347.21875 349.0594Q346.1875 348.5125 345.65625 347.4969Q345.14062 346.46564 345.14062 345.2Q345.14062 343.9344 345.65625 342.85626Q346.1875 341.7625 347.17188 341.2469Q348.15625 340.71564 349.4375 340.71564Q350.375 340.71564 351.125 341.0125Q351.875 341.3094 352.29688 341.85626Q352.73438 342.3875 352.95312 343.2625L351.9375 343.54376Q351.73438 342.8875 351.4375 342.5125Q351.15625 342.1375 350.625 341.91876Q350.09375 341.6844 349.45312 341.6844Q348.67188 341.6844 348.09375 341.91876Q347.53125 342.15314 347.17188 342.54376Q346.82812 342.9344 346.64062 343.40314Q346.3125 344.2 346.3125 345.1219Q346.3125 346.27814 346.70312 347.0594Q347.10938 347.825 347.85938 348.2Q348.60938 348.575 349.46875 348.575Q350.20312 348.575 350.90625 348.29376Q351.60938 347.9969 351.96875 347.6844L351.96875 346.075L349.45312 346.075ZM354.42188 349.45L354.42188 340.85626L357.67188 340.85626Q358.51562 340.85626 358.96875 340.9344Q359.60938 341.04376 360.03125 341.34064Q360.46875 341.6375 360.71875 342.16876Q360.98438 342.7 360.98438 343.34064Q360.98438 344.4344 360.28125 345.2Q359.59375 345.95 357.76562 345.95L355.5625 345.95L355.5625 349.45L354.42188 349.45ZM355.5625 344.95L357.78125 344.95Q358.89062 344.95 359.34375 344.54376Q359.8125 344.1219 359.8125 343.3719Q359.8125 342.84064 359.53125 342.46564Q359.26562 342.075 358.82812 341.95Q358.53125 341.8719 357.76562 341.8719L355.5625 341.8719L355.5625 344.95ZM364.60938 349.45L364.60938 341.8719L361.78125 341.8719L361.78125 340.85626L368.59375 340.85626L368.59375 341.8719L365.75 341.8719L365.75 349.45L364.60938 349.45Z" fill-rule="nonzero"/><path fill="#000000" d="M447.48157 349.45L447.48157 340.85626L448.63782 340.85626L453.15344 347.60626L453.15344 340.85626L454.2472 340.85626L454.2472 349.45L453.07532 349.45L448.5597 342.7L448.5597 349.45L447.48157 349.45ZM455.96594 346.34064Q455.96594 344.60626 456.91907 343.77814Q457.71594 343.09064 458.8722 343.09064Q460.15344 343.09064 460.96594 343.9344Q461.79407 344.7625 461.79407 346.2469Q461.79407 347.45 461.4347 348.1375Q461.07532 348.825 460.3722 349.21564Q459.6847 349.59064 458.8722 349.59064Q457.57532 349.59064 456.76282 348.7625Q455.96594 347.91876 455.96594 346.34064ZM457.04407 346.34064Q457.04407 347.52814 457.5597 348.1219Q458.09094 348.71564 458.8722 348.71564Q459.66907 348.71564 460.1847 348.1219Q460.70032 347.52814 460.70032 346.3094Q460.70032 345.15314 460.16907 344.5594Q459.65344 343.96564 458.8722 343.96564Q458.09094 343.96564 457.5597 344.5594Q457.04407 345.1375 457.04407 346.34064ZM466.35657 351.84064L466.35657 343.23126L467.3097 343.23126L467.3097 344.02814Q467.65344 343.5594 468.07532 343.325Q468.51282 343.09064 469.1222 343.09064Q469.91907 343.09064 470.52844 343.4969Q471.13782 343.90314 471.4347 344.65314Q471.7472 345.40314 471.7472 346.29376Q471.7472 347.2469 471.40344 348.0125Q471.07532 348.77814 470.41907 349.1844Q469.76282 349.59064 469.04407 349.59064Q468.51282 349.59064 468.09094 349.3719Q467.66907 349.1375 467.40344 348.8094L467.40344 351.84064L466.35657 351.84064ZM467.3097 346.3719Q467.3097 347.575 467.79407 348.15314Q468.27844 348.71564 468.96594 348.71564Q469.66907 348.71564 470.16907 348.1219Q470.66907 347.52814 470.66907 346.27814Q470.66907 345.09064 470.1847 344.5125Q469.70032 343.91876 469.01282 343.91876Q468.34094 343.91876 467.82532 344.54376Q467.3097 345.16876 467.3097 346.3719ZM473.34094 349.45L473.34094 343.23126L474.29407 343.23126L474.29407 344.16876Q474.65344 343.5125 474.95032 343.3094Q475.26282 343.09064 475.63782 343.09064Q476.16907 343.09064 476.71594 343.41876L476.35657 344.40314Q475.96594 344.16876 475.59094 344.16876Q475.23157 344.16876 474.95032 344.3875Q474.6847 344.59064 474.57532 344.96564Q474.38782 345.52814 474.38782 346.1844L474.38782 349.45L473.34094 349.45ZM481.60657 347.45L482.70032 347.575Q482.45032 348.52814 481.7472 349.0594Q481.04407 349.59064 479.96594 349.59064Q478.60657 349.59064 477.79407 348.7469Q476.9972 347.90314 476.9972 346.3875Q476.9972 344.825 477.8097 343.96564Q478.6222 343.09064 479.90344 343.09064Q481.15344 343.09064 481.9347 343.9344Q482.73157 344.77814 482.73157 346.325Q482.73157 346.41876 482.73157 346.60626L478.09094 346.60626Q478.15344 347.6375 478.66907 348.1844Q479.1847 348.71564 479.96594 348.71564Q480.54407 348.71564 480.95032 348.41876Q481.3722 348.10626 481.60657 347.45ZM478.15344 345.7469L481.6222 345.7469Q481.5597 344.95 481.23157 344.5594Q480.71594 343.95 479.91907 343.95Q479.1847 343.95 478.6847 344.4344Q478.20032 344.91876 478.15344 345.7469ZM484.60657 349.45L484.60657 344.04376L483.66907 344.04376L483.66907 343.23126L484.60657 343.23126L484.60657 342.5594Q484.60657 341.9344 484.71594 341.6375Q484.8722 341.21564 485.2472 340.96564Q485.63782 340.71564 486.32532 340.71564Q486.77844 340.71564 487.3097 340.825L487.15344 341.73126Q486.82532 341.6844 486.52844 341.6844Q486.04407 341.6844 485.84094 341.8875Q485.65344 342.09064 485.65344 342.65314L485.65344 343.23126L486.8722 343.23126L486.8722 344.04376L485.65344 344.04376L485.65344 349.45L484.60657 349.45ZM491.60657 347.45L492.70032 347.575Q492.45032 348.52814 491.7472 349.0594Q491.04407 349.59064 489.96594 349.59064Q488.60657 349.59064 487.79407 348.7469Q486.9972 347.90314 486.9972 346.3875Q486.9972 344.825 487.8097 343.96564Q488.6222 343.09064 489.90344 343.09064Q491.15344 343.09064 491.9347 343.9344Q492.73157 344.77814 492.73157 346.325Q492.73157 346.41876 492.73157 346.60626L488.09094 346.60626Q488.15344 347.6375 488.66907 348.1844Q489.1847 348.71564 489.96594 348.71564Q490.54407 348.71564 490.95032 348.41876Q491.3722 348.10626 491.60657 347.45ZM488.15344 345.7469L491.6222 345.7469Q491.5597 344.95 491.23157 344.5594Q490.71594 343.95 489.91907 343.95Q489.1847 343.95 488.6847 344.4344Q488.20032 344.91876 488.15344 345.7469ZM494.34094 349.45L494.34094 343.23126L495.29407 343.23126L495.29407 344.16876Q495.65344 343.5125 495.95032 343.3094Q496.26282 343.09064 496.63782 343.09064Q497.16907 343.09064 497.71594 343.41876L497.35657 344.40314Q496.96594 344.16876 496.59094 344.16876Q496.23157 344.16876 495.95032 344.3875Q495.6847 344.59064 495.57532 344.96564Q495.38782 345.52814 495.38782 346.1844L495.38782 349.45L494.34094 349.45ZM502.60657 347.45L503.70032 347.575Q503.45032 348.52814 502.7472 349.0594Q502.04407 349.59064 500.96594 349.59064Q499.60657 349.59064 498.79407 348.7469Q497.9972 347.90314 497.9972 346.3875Q497.9972 344.825 498.8097 343.96564Q499.6222 343.09064 500.90344 343.09064Q502.15344 343.09064 502.9347 343.9344Q503.73157 344.77814 503.73157 346.325Q503.73157 346.41876 503.73157 346.60626L499.09094 346.60626Q499.15344 347.6375 499.66907 348.1844Q500.1847 348.71564 500.96594 348.71564Q501.54407 348.71564 501.95032 348.41876Q502.3722 348.10626 502.60657 347.45ZM499.15344 345.7469L502.6222 345.7469Q502.5597 344.95 502.23157 344.5594Q501.71594 343.95 500.91907 343.95Q500.1847 343.95 499.6847 344.4344Q499.20032 344.91876 499.15344 345.7469ZM505.35657 349.45L505.35657 343.23126L506.29407 343.23126L506.29407 344.10626Q506.98157 343.09064 508.27844 343.09064Q508.84094 343.09064 509.3097 343.29376Q509.79407 343.4969 510.02844 343.825Q510.26282 344.15314 510.35657 344.59064Q510.40344 344.8875 510.40344 345.6219L510.40344 349.45L509.35657 349.45L509.35657 345.66876Q509.35657 345.0125 509.23157 344.7Q509.10657 344.3875 508.79407 344.2Q508.48157 343.9969 508.0597 343.9969Q507.38782 343.9969 506.88782 344.4344Q506.40344 344.85626 506.40344 346.04376L506.40344 349.45L505.35657 349.45ZM516.41907 347.16876L517.4503 347.3094Q517.27844 348.3719 516.5753 348.98126Q515.8722 349.59064 514.85657 349.59064Q513.5753 349.59064 512.79407 348.7625Q512.02844 347.91876 512.02844 346.35626Q512.02844 345.35626 512.35657 344.60626Q512.7003 343.84064 513.3722 343.46564Q514.0597 343.09064 514.8722 343.09064Q515.8722 343.09064 516.5128 343.60626Q517.16907 344.10626 517.35657 345.0594L516.3253 345.21564Q516.1847 344.59064 515.8097 344.27814Q515.4347 343.95 514.90344 343.95Q514.10657 343.95 513.60657 344.52814Q513.10657 345.09064 513.10657 346.325Q513.10657 347.59064 513.59094 348.15314Q514.0753 348.71564 514.84094 348.71564Q515.46594 348.71564 515.8722 348.34064Q516.29407 347.96564 516.41907 347.16876ZM522.60657 347.45L523.7003 347.575Q523.4503 348.52814 522.7472 349.0594Q522.04407 349.59064 520.96594 349.59064Q519.60657 349.59064 518.79407 348.7469Q517.9972 347.90314 517.9972 346.3875Q517.9972 344.825 518.8097 343.96564Q519.6222 343.09064 520.90344 343.09064Q522.15344 343.09064 522.9347 343.9344Q523.73157 344.77814 523.73157 346.325Q523.73157 346.41876 523.73157 346.60626L519.09094 346.60626Q519.15344 347.6375 519.66907 348.1844Q520.1847 348.71564 520.96594 348.71564Q521.54407 348.71564 521.9503 348.41876Q522.3722 348.10626 522.60657 347.45ZM519.15344 345.7469L522.6222 345.7469Q522.5597 344.95 522.23157 344.5594Q521.71594 343.95 520.91907 343.95Q520.1847 343.95 519.6847 344.4344Q519.2003 344.91876 519.15344 345.7469Z" fill-rule="nonzero"/></svg>