<svg version="1.1" viewBox="0.0 0.0 600.0 371.0" fill="none" stroke="none" stroke-linecap="square" stroke-miterlimit="10" width="600" height="371" xmlns:xlink="http://www.w3.org/1999/xlink" xmlns="http://www.w3.org/2000/svg"><path fill="#ffffff" d="M0 0L600.0 0L600.0 371.0L0 371.0L0 0Z" fill-rule="nonzero"/><path stroke="#333333" stroke-width="1.0" stroke-linecap="butt" d="M98.5 332.5L581.5 332.5" fill-rule="nonzero"/><path stroke="#cccccc" stroke-width="1.0" stroke-linecap="butt" d="M98.5 262.5L581.5 262.5" fill-rule="nonzero"/><path stroke="#cccccc" stroke-width="1.0" stroke-linecap="butt" d="M98.5 192.5L581.5 192.5" fill-rule="nonzero"/><path stroke="#cccccc" stroke-width="1.0" stroke-linecap="butt" d="M98.5 122.5L581.5 122.5" fill-rule="nonzero"/><path stroke="#cccccc" stroke-width="1.0" stroke-linecap="butt" d="M98.5 51.5L581.5 51.5" fill-rule="nonzero"/><clipPath id="id_0"><path d="M98.55 51.916668L581.45 51.916668L581.45 332.45L98.55 332.45L98.55 51.916668Z" clip-rule="nonzero"/></clipPath><path stroke="#000000" stroke-width="2.0" stroke-linecap="butt" stroke-opacity="0.0" clip-path="url(#id_0)" d="M160.0 332.0L138.0 332.0L138.0 240.0C138.0 238.89543 138.89543 238.0 140.0 238.0L158.0 238.0C159.10457 238.0 160.0 238.89543 160.0 240.0Z" fill-rule="nonzero"/><path fill="#5891ad" clip-path="url(#id_0)" d="M160.0 332.0L138.0 332.0L138.0 240.0C138.0 238.89543 138.89543 238.0 140.0 238.0L158.0 238.0C159.10457 238.0 160.0 238.89543 160.0 240.0Z" fill-rule="nonzero"/><path stroke="#000000" stroke-width="2.0" stroke-linecap="butt" stroke-opacity="0.0" clip-path="url(#id_0)" d="M271.0 332.0L249.0 332.0L249.0 243.0C249.0 241.89543 249.89543 241.0 251.0 241.0L269.0 241.0C270.10458 241.0 271.0 241.89543 271.0 243.0Z" fill-rule="nonzero"/><path fill="#5891ad" clip-path="url(#id_0)" d="M271.0 332.0L249.0 332.0L249.0 243.0C249.0 241.89543 249.89543 241.0 251.0 241.0L269.0 241.0C270.10458 241.0 271.0 241.89543 271.0 243.0Z" fill-rule="nonzero"/><path stroke="#000000" stroke-width="2.0" stroke-linecap="butt" stroke-opacity="0.0" clip-path="url(#id_0)" d="M383.0 332.0L361.0 332.0L361.0 239.0C361.0 237.89543 361.89542 237.0 363.0 237.0L381.0 237.0C382.10458 237.0 383.0 237.89543 383.0 239.0Z" fill-rule="nonzero"/><path fill="#5891ad" clip-path="url(#id_0)" d="M383.0 332.0L361.0 332.0L361.0 239.0C361.0 237.89543 361.89542 237.0 363.0 237.0L381.0 237.0C382.10458 237.0 383.0 237.89543 383.0 239.0Z" fill-rule="nonzero"/><path stroke="#000000" stroke-width="2.0" stroke-linecap="butt" stroke-opacity="0.0" clip-path="url(#id_0)" d="M494.0 332.0L472.0 332.0L472.0 283.0C472.0 281.89542 472.89542 281.0 474.0 281.0L492.0 281.0C493.10458 281.0 494.0 281.89542 494.0 283.0Z" fill-rule="nonzero"/><path fill="#5891ad" clip-path="url(#id_0)" d="M494.0 332.0L472.0 332.0L472.0 283.0C472.0 281.89542 472.89542 281.0 474.0 281.0L492.0 281.0C493.10458 281.0 494.0 281.89542 494.0 283.0Z" fill-rule="nonzero"/><path stroke="#000000" stroke-width="2.0" stroke-linecap="butt" stroke-opacity="0.0" clip-path="url(#id_0)" d="M184.0 332.0L162.0 332.0L162.0 111.0C162.0 109.89543 162.89543 109.0 164.0 109.0L182.0 109.0C183.10457 109.0 184.0 109.89543 184.0 111.0Z" fill-rule="nonzero"/><path fill="#004561" clip-path="url(#id_0)" d="M184.0 332.0L162.0 332.0L162.0 111.0C162.0 109.89543 162.89543 109.0 164.0 109.0L182.0 109.0C183.10457 109.0 184.0 109.89543 184.0 111.0Z" fill-rule="nonzero"/><path stroke="#000000" stroke-width="2.0" stroke-linecap="butt" stroke-opacity="0.0" clip-path="url(#id_0)" d="M295.0 332.0L273.0 332.0L273.0 100.0C273.0 98.89543 273.89542 98.0 275.0 98.0L293.0 98.0C294.10458 98.0 295.0 98.89543 295.0 100.0Z" fill-rule="nonzero"/><path fill="#004561" clip-path="url(#id_0)" d="M295.0 332.0L273.0 332.0L273.0 100.0C273.0 98.89543 273.89542 98.0 275.0 98.0L293.0 98.0C294.10458 98.0 295.0 98.89543 295.0 100.0Z" fill-rule="nonzero"/><path stroke="#000000" stroke-width="2.0" stroke-linecap="butt" stroke-opacity="0.0" clip-path="url(#id_0)" d="M407.0 332.0L385.0 332.0L385.0 119.0C385.0 117.89543 385.89542 117.0 387.0 117.0L405.0 117.0C406.10458 117.0 407.0 117.89543 407.0 119.0Z" fill-rule="nonzero"/><path fill="#004561" clip-path="url(#id_0)" d="M407.0 332.0L385.0 332.0L385.0 119.0C385.0 117.89543 385.89542 117.0 387.0 117.0L405.0 117.0C406.10458 117.0 407.0 117.89543 407.0 119.0Z" fill-rule="nonzero"/><path stroke="#000000" stroke-width="2.0" stroke-linecap="butt" stroke-opacity="0.0" clip-path="url(#id_0)" d="M518.0 332.0L496.0 332.0L496.0 61.0C496.0 59.89543 496.89542 59.0 498.0 59.0L516.0 59.0C517.10455 59.0 518.0 59.89543 518.0 61.0Z" fill-rule="nonzero"/><path fill="#004561" clip-path="url(#id_0)" d="M518.0 332.0L496.0 332.0L496.0 61.0C496.0 59.89543 496.89542 59.0 498.0 59.0L516.0 59.0C517.10455 59.0 518.0 59.89543 518.0 61.0Z" fill-rule="nonzero"/><path stroke="#000000" stroke-width="2.0" stroke-linecap="butt" stroke-opacity="0.0" clip-path="url(#id_0)" d="M208.0 332.0L186.0 332.0L186.0 302.0C186.0 300.89542 186.89543 300.0 188.0 300.0L206.0 300.0C207.10457 300.0 208.0 300.89542 208.0 302.0Z" fill-rule="nonzero"/><path fill="#ff6f31" clip-path="url(#id_0)" d="M208.0 332.0L186.0 332.0L186.0 302.0C186.0 300.89542 186.89543 300.0 188.0 300.0L206.0 300.0C207.10457 300.0 208.0 300.89542 208.0 302.0Z" fill-rule="nonzero"/><path stroke="#000000" stroke-width="2.0" stroke-linecap="butt" stroke-opacity="0.0" clip-path="url(#id_0)" d="M319.0 332.0L297.0 332.0L297.0 310.0C297.0 308.89542 297.89542 308.0 299.0 308.0L317.0 308.0C318.10458 308.0 319.0 308.89542 319.0 310.0Z" fill-rule="nonzero"/><path fill="#ff6f31" clip-path="url(#id_0)" d="M319.0 332.0L297.0 332.0L297.0 310.0C297.0 308.89542 297.89542 308.0 299.0 308.0L317.0 308.0C318.10458 308.0 319.0 308.89542 319.0 310.0Z" fill-rule="nonzero"/><path stroke="#000000" stroke-width="2.0" stroke-linecap="butt" stroke-opacity="0.0" clip-path="url(#id_0)" d="M431.0 332.0L409.0 332.0L409.0 295.0C409.0 293.89542 409.89542 293.0 411.0 293.0L429.0 293.0C430.10458 293.0 431.0 293.89542 431.0 295.0Z" fill-rule="nonzero"/><path fill="#ff6f31" clip-path="url(#id_0)" d="M431.0 332.0L409.0 332.0L409.0 295.0C409.0 293.89542 409.89542 293.0 411.0 293.0L429.0 293.0C430.10458 293.0 431.0 293.89542 431.0 295.0Z" fill-rule="nonzero"/><path stroke="#000000" stroke-width="2.0" stroke-linecap="butt" stroke-opacity="0.0" clip-path="url(#id_0)" d="M542.0 332.0L520.0 332.0L520.0 309.0C520.0 307.89542 520.89545 307.0 522.0 307.0L540.0 307.0C541.10455 307.0 542.0 307.89542 542.0 309.0Z" fill-rule="nonzero"/><path fill="#ff6f31" clip-path="url(#id_0)" d="M542.0 332.0L520.0 332.0L520.0 309.0C520.0 307.89542 520.89545 307.0 522.0 307.0L540.0 307.0C541.10455 307.0 542.0 307.89542 542.0 309.0Z" fill-rule="nonzero"/><path fill="#000000" d="M29.550013 251.76146L20.956263 251.76146L20.956263 248.51146Q20.956263 247.66771 21.034388 247.21458Q21.143763 246.57396 21.440638 246.15208Q21.737513 245.71458 22.268763 245.46458Q22.800013 245.19896 23.440638 245.19896Q24.534388 245.19896 25.300013 245.90208Q26.050013 246.58958 26.050013 248.41771L26.050013 250.62083L29.550013 250.62083L29.550013 251.76146ZM25.050013 250.62083L25.050013 248.40208Q25.050013 247.29271 24.643763 246.83958Q24.221888 246.37083 23.471888 246.37083Q22.940638 246.37083 22.565638 246.65208Q22.175013 246.91771 22.050013 247.35521Q21.971888 247.65208 21.971888 248.41771L21.971888 250.62083L25.050013 250.62083ZM27.550013 239.63646L27.675013 238.54271Q28.628138 238.79271 29.159388 239.49583Q29.690638 240.19896 29.690638 241.27708Q29.690638 242.63646 28.846888 243.44896Q28.003138 244.24583 26.487513 244.24583Q24.925013 244.24583 24.065638 243.43333Q23.190638 242.62083 23.190638 241.33958Q23.190638 240.08958 24.034388 239.30833Q24.878138 238.51146 26.425013 238.51146Q26.518763 238.51146 26.706263 238.51146L26.706263 243.15208Q27.737513 243.08958 28.284388 242.57396Q28.815638 242.05833 28.815638 241.27708Q28.815638 240.69896 28.518763 240.29271Q28.206263 239.87083 27.550013 239.63646ZM25.846888 243.08958L25.846888 239.62083Q25.050013 239.68333 24.659388 240.01146Q24.050013 240.52708 24.050013 241.32396Q24.050013 242.05833 24.534388 242.55833Q25.018763 243.04271 25.846888 243.08958ZM29.550013 236.90208L23.331263 236.90208L23.331263 235.94896L24.268763 235.94896Q23.612513 235.58958 23.409388 235.29271Q23.190638 234.98021 23.190638 234.60521Q23.190638 234.07396 23.518763 233.52708L24.503138 233.88646Q24.268763 234.27708 24.268763 234.65208Q24.268763 235.01146 24.487513 235.29271Q24.690638 235.55833 25.065638 235.66771Q25.628138 235.85521 26.284388 235.85521L29.550013 235.85521L29.550013 236.90208ZM27.268763 228.82396L27.409388 227.79271Q28.471888 227.96458 29.081263 228.66771Q29.690638 229.37083 29.690638 230.38646Q29.690638 231.66771 28.862513 232.44896Q28.018763 233.21458 26.456263 233.21458Q25.456263 233.21458 24.706263 232.88646Q23.940638 232.54271 23.565638 231.87083Q23.190638 231.18333 23.190638 230.37083Q23.190638 229.37083 23.706263 228.73021Q24.206263 228.07396 25.159388 227.88646L25.315638 228.91771Q24.690638 229.05833 24.378138 229.43333Q24.050013 229.80833 24.050013 230.33958Q24.050013 231.13646 24.628138 231.63646Q25.190638 232.13646 26.425013 232.13646Q27.690638 232.13646 28.253138 231.65208Q28.815638 231.16771 28.815638 230.40208Q28.815638 229.77708 28.440638 229.37083Q28.065638 228.94896 27.268763 228.82396ZM27.550013 222.63646L27.675013 221.54271Q28.628138 221.79271 29.159388 222.49583Q29.690638 223.19896 29.690638 224.27708Q29.690638 225.63646 28.846888 226.44896Q28.003138 227.24583 26.487513 227.24583Q24.925013 227.24583 24.065638 226.43333Q23.190638 225.62083 23.190638 224.33958Q23.190638 223.08958 24.034388 222.30833Q24.878138 221.51146 26.425013 221.51146Q26.518763 221.51146 26.706263 221.51146L26.706263 226.15208Q27.737513 226.08958 28.284388 225.57396Q28.815638 225.05833 28.815638 224.27708Q28.815638 223.69896 28.518763 223.29271Q28.206263 222.87083 27.550013 222.63646ZM25.846888 226.08958L25.846888 222.62083Q25.050013 222.68333 24.659388 223.01146Q24.050013 223.52708 24.050013 224.32396Q24.050013 225.05833 24.534388 225.55833Q25.018763 226.04271 25.846888 226.08958ZM29.550013 219.88646L23.331263 219.88646L23.331263 218.94896L24.206263 218.94896Q23.190638 218.26146 23.190638 216.96458Q23.190638 216.40208 23.393763 215.93333Q23.596888 215.44896 23.925013 215.21458Q24.253138 214.98021 24.690638 214.88646Q24.987513 214.83958 25.721888 214.83958L29.550013 214.83958L29.550013 215.88646L25.768763 215.88646Q25.112513 215.88646 24.800013 216.01146Q24.487513 216.13646 24.300013 216.44896Q24.096888 216.76146 24.096888 217.18333Q24.096888 217.85521 24.534388 218.35521Q24.956263 218.83958 26.143763 218.83958L29.550013 218.83958L29.550013 219.88646ZM28.612513 210.58958L29.534388 210.43333Q29.628138 210.88646 29.628138 211.23021Q29.628138 211.80833 29.456263 212.12083Q29.268763 212.43333 28.971888 212.57396Q28.675013 212.69896 27.721888 212.69896L24.143763 212.69896L24.143763 213.46458L23.331263 213.46458L23.331263 212.69896L21.784388 212.69896L21.159388 211.65208L23.331263 211.65208L23.331263 210.58958L24.143763 210.58958L24.143763 211.65208L27.784388 211.65208Q28.237513 211.65208 28.362513 211.60521Q28.487513 211.54271 28.565638 211.41771Q28.643763 211.29271 28.643763 211.05833Q28.643763 210.87083 28.612513 210.58958ZM28.784388 205.82396Q29.284388 206.41771 29.487513 206.96458Q29.690638 207.49583 29.690638 208.12083Q29.690638 209.15208 29.190638 209.69896Q28.690638 210.24583 27.909388 210.24583Q27.456263 210.24583 27.081263 210.04271Q26.690638 209.83958 26.471888 209.49583Q26.237513 209.15208 26.128138 208.73021Q26.034388 208.43333 25.956263 207.79271Q25.815638 206.52708 25.596888 205.91771Q25.378138 205.91771 25.331263 205.91771Q24.675013 205.91771 24.409388 206.21458Q24.065638 206.62083 24.065638 207.41771Q24.065638 208.15208 24.331263 208.51146Q24.581263 208.87083 25.237513 209.04271L25.096888 210.07396Q24.440638 209.93333 24.034388 209.60521Q23.628138 209.27708 23.409388 208.66771Q23.190638 208.05833 23.190638 207.26146Q23.190638 206.46458 23.378138 205.96458Q23.565638 205.46458 23.846888 205.23021Q24.128138 204.99583 24.565638 204.90208Q24.831263 204.85521 25.534388 204.85521L26.940638 204.85521Q28.409388 204.85521 28.800013 204.79271Q29.190638 204.71458 29.550013 204.51146L29.550013 205.62083Q29.221888 205.77708 28.784388 205.82396ZM26.425013 205.91771Q26.659388 206.49583 26.831263 207.63646Q26.925013 208.29271 27.050013 208.55833Q27.159388 208.82396 27.378138 208.98021Q27.596888 209.12083 27.878138 209.12083Q28.300013 209.12083 28.581263 208.80833Q28.862513 208.48021 28.862513 207.87083Q28.862513 207.26146 28.596888 206.79271Q28.331263 206.30833 27.862513 206.08958Q27.503138 205.91771 26.815638 205.91771L26.425013 205.91771ZM30.065638 203.08958L30.221888 202.05833Q30.690638 201.99583 30.909388 201.69896Q31.206263 201.30833 31.206263 200.63646Q31.206263 199.90208 30.909388 199.51146Q30.612513 199.10521 30.096888 198.96458Q29.768763 198.87083 28.737513 198.88646Q29.550013 199.57396 29.550013 200.60521Q29.550013 201.88646 28.628138 202.58958Q27.690638 203.29271 26.409388 203.29271Q25.518763 203.29271 24.768763 202.98021Q24.003138 202.65208 23.596888 202.04271Q23.190638 201.43333 23.190638 200.60521Q23.190638 199.49583 24.081263 198.77708L23.331263 198.77708L23.331263 197.80833L28.706263 197.80833Q30.159388 197.80833 30.768763 198.10521Q31.378138 198.40208 31.721888 199.04271Q32.08126 199.68333 32.08126 200.62083Q32.08126 201.73021 31.581263 202.41771Q31.081263 203.10521 30.065638 203.08958ZM26.331263 202.21458Q27.550013 202.21458 28.112513 201.73021Q28.675013 201.24583 28.675013 200.51146Q28.675013 199.77708 28.112513 199.29271Q27.550013 198.79271 26.362513 198.79271Q25.221888 198.79271 24.643763 199.30833Q24.065638 199.80833 24.065638 200.52708Q24.065638 201.23021 24.643763 201.73021Q25.206263 202.21458 26.331263 202.21458ZM27.550013 191.63646L27.675013 190.54271Q28.628138 190.79271 29.159388 191.49583Q29.690638 192.19896 29.690638 193.27708Q29.690638 194.63646 28.846888 195.44896Q28.003138 196.24583 26.487513 196.24583Q24.925013 196.24583 24.065638 195.43333Q23.190638 194.62083 23.190638 193.33958Q23.190638 192.08958 24.034388 191.30833Q24.878138 190.51146 26.425013 190.51146Q26.518763 190.51146 26.706263 190.51146L26.706263 195.15208Q27.737513 195.08958 28.284388 194.57396Q28.815638 194.05833 28.815638 193.27708Q28.815638 192.69896 28.518763 192.29271Q28.206263 191.87083 27.550013 191.63646ZM25.846888 195.08958L25.846888 191.62083Q25.050013 191.68333 24.659388 192.01146Q24.050013 192.52708 24.050013 193.32396Q24.050013 194.05833 24.534388 194.55833Q25.018763 195.04271 25.846888 195.08958ZM26.440638 186.27708Q24.706263 186.27708 23.878138 185.32396Q23.190638 184.52708 23.190638 183.37083Q23.190638 182.08958 24.034388 181.27708Q24.862513 180.44896 26.346888 180.44896Q27.550013 180.44896 28.237513 180.80833Q28.925013 181.16771 29.315638 181.87083Q29.690638 182.55833 29.690638 183.37083Q29.690638 184.66771 28.862513 185.48021Q28.018763 186.27708 26.440638 186.27708ZM26.440638 185.19896Q27.628138 185.19896 28.221888 184.68333Q28.815638 184.15208 28.815638 183.37083Q28.815638 182.57396 28.221888 182.05833Q27.628138 181.54271 26.409388 181.54271Q25.253138 181.54271 24.659388 182.07396Q24.065638 182.58958 24.065638 183.37083Q24.065638 184.15208 24.659388 184.68333Q25.237513 185.19896 26.440638 185.19896ZM29.550013 178.63646L24.143763 178.63646L24.143763 179.57396L23.331263 179.57396L23.331263 178.63646L22.659388 178.63646Q22.034388 178.63646 21.737513 178.52708Q21.315638 178.37083 21.065638 177.99583Q20.815638 177.60521 20.815638 176.91771Q20.815638 176.46458 20.925013 175.93333L21.831263 176.08958Q21.784388 176.41771 21.784388 176.71458Q21.784388 177.19896 21.987513 177.40208Q22.190638 177.58958 22.753138 177.58958L23.331263 177.58958L23.331263 176.37083L24.143763 176.37083L24.143763 177.58958L29.550013 177.58958L29.550013 178.63646ZM29.550013 171.16771L23.331263 173.52708L23.331263 172.41771L27.050013 171.07396Q27.659388 170.87083 28.300013 170.68333Q27.815638 170.54271 27.128138 170.29271L23.331263 168.90208L23.331263 167.82396L29.550013 170.18333L29.550013 171.16771ZM26.440638 168.27708Q24.706263 168.27708 23.878138 167.32396Q23.190638 166.52708 23.190638 165.37083Q23.190638 164.08958 24.034388 163.27708Q24.862513 162.44896 26.346888 162.44896Q27.550013 162.44896 28.237513 162.80833Q28.925013 163.16771 29.315638 163.87083Q29.690638 164.55833 29.690638 165.37083Q29.690638 166.66771 28.862513 167.48021Q28.018763 168.27708 26.440638 168.27708ZM26.440638 167.19896Q27.628138 167.19896 28.221888 166.68333Q28.815638 166.15208 28.815638 165.37083Q28.815638 164.57396 28.221888 164.05833Q27.628138 163.54271 26.409388 163.54271Q25.253138 163.54271 24.659388 164.07396Q24.065638 164.58958 24.065638 165.37083Q24.065638 166.15208 24.659388 166.68333Q25.237513 167.19896 26.440638 167.19896ZM28.612513 158.58958L29.534388 158.43333Q29.628138 158.88646 29.628138 159.23021Q29.628138 159.80833 29.456263 160.12083Q29.268763 160.43333 28.971888 160.57396Q28.675013 160.69896 27.721888 160.69896L24.143763 160.69896L24.143763 161.46458L23.331263 161.46458L23.331263 160.69896L21.784388 160.69896L21.159388 159.65208L23.331263 159.65208L23.331263 158.58958L24.143763 158.58958L24.143763 159.65208L27.784388 159.65208Q28.237513 159.65208 28.362513 159.60521Q28.487513 159.54271 28.565638 159.41771Q28.643763 159.29271 28.643763 159.05833Q28.643763 158.87083 28.612513 158.58958ZM27.550013 153.63646L27.675013 152.54271Q28.628138 152.79271 29.159388 153.49583Q29.690638 154.19896 29.690638 155.27708Q29.690638 156.63646 28.846888 157.44896Q28.003138 158.24583 26.487513 158.24583Q24.925013 158.24583 24.065638 157.43333Q23.190638 156.62083 23.190638 155.33958Q23.190638 154.08958 24.034388 153.30833Q24.878138 152.51146 26.425013 152.51146Q26.518763 152.51146 26.706263 152.51146L26.706263 157.15208Q27.737513 157.08958 28.284388 156.57396Q28.815638 156.05833 28.815638 155.27708Q28.815638 154.69896 28.518763 154.29271Q28.206263 153.87083 27.550013 153.63646ZM25.846888 157.08958L25.846888 153.62083Q25.050013 153.68333 24.659388 154.01146Q24.050013 154.52708 24.050013 155.32396Q24.050013 156.05833 24.534388 156.55833Q25.018763 157.04271 25.846888 157.08958ZM27.690638 151.30833L27.534388 150.27708Q28.159388 150.18333 28.487513 149.79271Q28.815638 149.38646 28.815638 148.65208Q28.815638 147.93333 28.534388 147.58958Q28.237513 147.23021 27.831263 147.23021Q27.471888 147.23021 27.268763 147.54271Q27.128138 147.76146 26.909388 148.62083Q26.612513 149.77708 26.409388 150.23021Q26.190638 150.66771 25.815638 150.90208Q25.440638 151.13646 24.971888 151.13646Q24.565638 151.13646 24.206263 150.94896Q23.846888 150.76146 23.612513 150.43333Q23.440638 150.18333 23.315638 149.76146Q23.190638 149.33958 23.190638 148.83958Q23.190638 148.12083 23.409388 147.57396Q23.612513 147.01146 23.971888 146.74583Q24.331263 146.48021 24.925013 146.38646L25.065638 147.41771Q24.596888 147.48021 24.331263 147.82396Q24.050013 148.15208 24.050013 148.77708Q24.050013 149.49583 24.300013 149.80833Q24.534388 150.12083 24.862513 150.12083Q25.065638 150.12083 25.221888 149.99583Q25.393763 149.85521 25.503138 149.58958Q25.565638 149.43333 25.768763 148.65208Q26.081263 147.52708 26.268763 147.08958Q26.456263 146.65208 26.815638 146.40208Q27.175013 146.15208 27.721888 146.15208Q28.253138 146.15208 28.721888 146.46458Q29.175013 146.76146 29.440638 147.33958Q29.690638 147.91771 29.690638 148.65208Q29.690638 149.87083 29.190638 150.51146Q28.675013 151.13646 27.690638 151.30833Z" fill-rule="nonzero"/><path fill="#000000" d="M58.05 332.21564Q58.05 330.6844 58.3625 329.7625Q58.675 328.825 59.284374 328.325Q59.909374 327.825 60.846874 327.825Q61.534374 327.825 62.05 328.10626Q62.58125 328.3875 62.925 328.91876Q63.26875 329.4344 63.45625 330.1844Q63.64375 330.9344 63.64375 332.21564Q63.64375 333.73126 63.33125 334.65314Q63.034374 335.575 62.409374 336.09064Q61.8 336.59064 60.846874 336.59064Q59.6125 336.59064 58.89375 335.7Q58.05 334.6375 58.05 332.21564ZM59.128124 332.21564Q59.128124 334.325 59.628124 335.02814Q60.128124 335.73126 60.846874 335.73126Q61.58125 335.73126 62.065624 335.02814Q62.565624 334.325 62.565624 332.21564Q62.565624 330.09064 62.065624 329.40314Q61.58125 328.7 60.83125 328.7Q60.1125 328.7 59.675 329.3094Q59.128124 330.09064 59.128124 332.21564ZM65.64375 336.45L65.64375 335.2469L66.84688 335.2469L66.84688 336.45L65.64375 336.45ZM68.05 332.21564Q68.05 330.6844 68.3625 329.7625Q68.675 328.825 69.28438 328.325Q69.90938 327.825 70.84688 327.825Q71.53438 327.825 72.05 328.10626Q72.58125 328.3875 72.925 328.91876Q73.26875 329.4344 73.45625 330.1844Q73.64375 330.9344 73.64375 332.21564Q73.64375 333.73126 73.33125 334.65314Q73.03438 335.575 72.40938 336.09064Q71.8 336.59064 70.84688 336.59064Q69.6125 336.59064 68.89375 335.7Q68.05 334.6375 68.05 332.21564ZM69.12813 332.21564Q69.12813 334.325 69.62813 335.02814Q70.12813 335.73126 70.84688 335.73126Q71.58125 335.73126 72.06563 335.02814Q72.56563 334.325 72.56563 332.21564Q72.56563 330.09064 72.06563 329.40314Q71.58125 328.7 70.83125 328.7Q70.1125 328.7 69.675 329.3094Q69.12813 330.09064 69.12813 332.21564ZM75.05 332.21564Q75.05 330.6844 75.3625 329.7625Q75.675 328.825 76.28438 328.325Q76.90938 327.825 77.84688 327.825Q78.53438 327.825 79.05 328.10626Q79.58125 328.3875 79.925 328.91876Q80.26875 329.4344 80.45625 330.1844Q80.64375 330.9344 80.64375 332.21564Q80.64375 333.73126 80.33125 334.65314Q80.03438 335.575 79.40938 336.09064Q78.8 336.59064 77.84688 336.59064Q76.6125 336.59064 75.89375 335.7Q75.05 334.6375 75.05 332.21564ZM76.12813 332.21564Q76.12813 334.325 76.62813 335.02814Q77.12813 335.73126 77.84688 335.73126Q78.58125 335.73126 79.06563 335.02814Q79.56563 334.325 79.56563 332.21564Q79.56563 330.09064 79.06563 329.40314Q78.58125 328.7 77.83125 328.7Q77.1125 328.7 76.675 329.3094Q76.12813 330.09064 76.12813 332.21564ZM82.25313 329.91876Q82.25313 328.9969 82.70625 328.35626Q83.175 327.71564 84.05 327.71564Q84.8625 327.71564 85.39375 328.29376Q85.925 328.8719 85.925 329.98126Q85.925 331.075 85.37813 331.66876Q84.84688 332.2469 84.06563 332.2469Q83.28438 332.2469 82.76875 331.66876Q82.25313 331.09064 82.25313 329.91876ZM84.08125 328.4344Q83.69063 328.4344 83.425 328.77814Q83.175 329.1219 83.175 330.02814Q83.175 330.85626 83.425 331.2Q83.69063 331.52814 84.08125 331.52814Q84.4875 331.52814 84.7375 331.1844Q85.00313 330.84064 85.00313 329.95Q85.00313 329.10626 84.7375 328.77814Q84.47188 328.4344 84.08125 328.4344ZM84.08125 336.7625L88.78438 327.71564L89.64375 327.71564L84.95625 336.7625L84.08125 336.7625ZM87.8 334.4344Q87.8 333.5125 88.25313 332.8719Q88.72188 332.23126 89.6125 332.23126Q90.425 332.23126 90.95625 332.8094Q91.4875 333.3719 91.4875 334.4969Q91.4875 335.59064 90.94063 336.1844Q90.40938 336.7625 89.6125 336.7625Q88.84688 336.7625 88.31563 336.1844Q87.8 335.60626 87.8 334.4344ZM89.64375 332.95Q89.2375 332.95 88.97188 333.29376Q88.72188 333.6375 88.72188 334.54376Q88.72188 335.35626 88.9875 335.7Q89.25313 336.04376 89.64375 336.04376Q90.03438 336.04376 90.3 335.7Q90.56563 335.35626 90.56563 334.45Q90.56563 333.6219 90.3 333.29376Q90.03438 332.95 89.64375 332.95Z" fill-rule="nonzero"/><path fill="#000000" d="M56.596874 265.30106L56.596874 266.31668L50.909374 266.31668Q50.909374 265.94168 51.034374 265.5823Q51.253124 265.00418 51.721874 264.44168Q52.20625 263.87918 53.1125 263.1448Q54.51875 261.98856 55.003124 261.31668Q55.503124 260.6448 55.503124 260.05106Q55.503124 259.42606 55.05 259.00418Q54.596874 258.56668 53.878124 258.56668Q53.1125 258.56668 52.659374 259.0198Q52.20625 259.47293 52.190624 260.28543L51.1125 260.17606Q51.221874 258.9573 51.940624 258.3323Q52.675 257.69168 53.909374 257.69168Q55.14375 257.69168 55.8625 258.37918Q56.58125 259.06668 56.58125 260.0823Q56.58125 260.59793 56.3625 261.09793Q56.159374 261.5823 55.659374 262.1448Q55.175 262.69168 54.05 263.6448Q53.096874 264.44168 52.815624 264.73856Q52.55 265.0198 52.378124 265.30106L56.596874 265.30106ZM58.05 262.0823Q58.05 260.55106 58.3625 259.62918Q58.675 258.69168 59.284374 258.19168Q59.909374 257.69168 60.846874 257.69168Q61.534374 257.69168 62.05 257.97293Q62.58125 258.25418 62.925 258.78543Q63.26875 259.30106 63.45625 260.05106Q63.64375 260.80106 63.64375 262.0823Q63.64375 263.59793 63.33125 264.5198Q63.034374 265.44168 62.409374 265.9573Q61.8 266.4573 60.846874 266.4573Q59.6125 266.4573 58.89375 265.56668Q58.05 264.50418 58.05 262.0823ZM59.128124 262.0823Q59.128124 264.19168 59.628124 264.8948Q60.128124 265.59793 60.846874 265.59793Q61.58125 265.59793 62.065624 264.8948Q62.565624 264.19168 62.565624 262.0823Q62.565624 259.9573 62.065624 259.2698Q61.58125 258.56668 60.83125 258.56668Q60.1125 258.56668 59.675 259.17606Q59.128124 259.9573 59.128124 262.0823ZM65.64375 266.31668L65.64375 265.11356L66.84688 265.11356L66.84688 266.31668L65.64375 266.31668ZM68.05 262.0823Q68.05 260.55106 68.3625 259.62918Q68.675 258.69168 69.28438 258.19168Q69.90938 257.69168 70.84688 257.69168Q71.53438 257.69168 72.05 257.97293Q72.58125 258.25418 72.925 258.78543Q73.26875 259.30106 73.45625 260.05106Q73.64375 260.80106 73.64375 262.0823Q73.64375 263.59793 73.33125 264.5198Q73.03438 265.44168 72.40938 265.9573Q71.8 266.4573 70.84688 266.4573Q69.6125 266.4573 68.89375 265.56668Q68.05 264.50418 68.05 262.0823ZM69.12813 262.0823Q69.12813 264.19168 69.62813 264.8948Q70.12813 265.59793 70.84688 265.59793Q71.58125 265.59793 72.06563 264.8948Q72.56563 264.19168 72.56563 262.0823Q72.56563 259.9573 72.06563 259.2698Q71.58125 258.56668 70.83125 258.56668Q70.1125 258.56668 69.675 259.17606Q69.12813 259.9573 69.12813 262.0823ZM75.05 262.0823Q75.05 260.55106 75.3625 259.62918Q75.675 258.69168 76.28438 258.19168Q76.90938 257.69168 77.84688 257.69168Q78.53438 257.69168 79.05 257.97293Q79.58125 258.25418 79.925 258.78543Q80.26875 259.30106 80.45625 260.05106Q80.64375 260.80106 80.64375 262.0823Q80.64375 263.59793 80.33125 264.5198Q80.03438 265.44168 79.40938 265.9573Q78.8 266.4573 77.84688 266.4573Q76.6125 266.4573 75.89375 265.56668Q75.05 264.50418 75.05 262.0823ZM76.12813 262.0823Q76.12813 264.19168 76.62813 264.8948Q77.12813 265.59793 77.84688 265.59793Q78.58125 265.59793 79.06563 264.8948Q79.56563 264.19168 79.56563 262.0823Q79.56563 259.9573 79.06563 259.2698Q78.58125 258.56668 77.83125 258.56668Q77.1125 258.56668 76.675 259.17606Q76.12813 259.9573 76.12813 262.0823ZM82.25313 259.78543Q82.25313 258.86356 82.70625 258.22293Q83.175 257.5823 84.05 257.5823Q84.8625 257.5823 85.39375 258.16043Q85.925 258.73856 85.925 259.84793Q85.925 260.94168 85.37813 261.53543Q84.84688 262.11356 84.06563 262.11356Q83.28438 262.11356 82.76875 261.53543Q82.25313 260.9573 82.25313 259.78543ZM84.08125 258.30106Q83.69063 258.30106 83.425 258.6448Q83.175 258.98856 83.175 259.8948Q83.175 260.72293 83.425 261.06668Q83.69063 261.3948 84.08125 261.3948Q84.4875 261.3948 84.7375 261.05106Q85.00313 260.7073 85.00313 259.81668Q85.00313 258.97293 84.7375 258.6448Q84.47188 258.30106 84.08125 258.30106ZM84.08125 266.62918L88.78438 257.5823L89.64375 257.5823L84.95625 266.62918L84.08125 266.62918ZM87.8 264.30106Q87.8 263.37918 88.25313 262.73856Q88.72188 262.09793 89.6125 262.09793Q90.425 262.09793 90.95625 262.67606Q91.4875 263.23856 91.4875 264.36356Q91.4875 265.4573 90.94063 266.05106Q90.40938 266.62918 89.6125 266.62918Q88.84688 266.62918 88.31563 266.05106Q87.8 265.47293 87.8 264.30106ZM89.64375 262.81668Q89.2375 262.81668 88.97188 263.16043Q88.72188 263.50418 88.72188 264.41043Q88.72188 265.22293 88.9875 265.56668Q89.25313 265.91043 89.64375 265.91043Q90.03438 265.91043 90.3 265.56668Q90.56563 265.22293 90.56563 264.31668Q90.56563 263.48856 90.3 263.16043Q90.03438 262.81668 89.64375 262.81668Z" fill-rule="nonzero"/><path fill="#000000" d="M54.425 196.18333L54.425 194.12083L50.70625 194.12083L50.70625 193.15208L54.628124 187.58958L55.4875 187.58958L55.4875 193.15208L56.64375 193.15208L56.64375 194.12083L55.4875 194.12083L55.4875 196.18333L54.425 196.18333ZM54.425 193.15208L54.425 189.29271L51.7375 193.15208L54.425 193.15208ZM58.05 191.94896Q58.05 190.41771 58.3625 189.49583Q58.675 188.55833 59.284374 188.05833Q59.909374 187.55833 60.846874 187.55833Q61.534374 187.55833 62.05 187.83958Q62.58125 188.12083 62.925 188.65208Q63.26875 189.16771 63.45625 189.91771Q63.64375 190.66771 63.64375 191.94896Q63.64375 193.46458 63.33125 194.38646Q63.034374 195.30833 62.409374 195.82396Q61.8 196.32396 60.846874 196.32396Q59.6125 196.32396 58.89375 195.43333Q58.05 194.37083 58.05 191.94896ZM59.128124 191.94896Q59.128124 194.05833 59.628124 194.76146Q60.128124 195.46458 60.846874 195.46458Q61.58125 195.46458 62.065624 194.76146Q62.565624 194.05833 62.565624 191.94896Q62.565624 189.82396 62.065624 189.13646Q61.58125 188.43333 60.83125 188.43333Q60.1125 188.43333 59.675 189.04271Q59.128124 189.82396 59.128124 191.94896ZM65.64375 196.18333L65.64375 194.98021L66.84688 194.98021L66.84688 196.18333L65.64375 196.18333ZM68.05 191.94896Q68.05 190.41771 68.3625 189.49583Q68.675 188.55833 69.28438 188.05833Q69.90938 187.55833 70.84688 187.55833Q71.53438 187.55833 72.05 187.83958Q72.58125 188.12083 72.925 188.65208Q73.26875 189.16771 73.45625 189.91771Q73.64375 190.66771 73.64375 191.94896Q73.64375 193.46458 73.33125 194.38646Q73.03438 195.30833 72.40938 195.82396Q71.8 196.32396 70.84688 196.32396Q69.6125 196.32396 68.89375 195.43333Q68.05 194.37083 68.05 191.94896ZM69.12813 191.94896Q69.12813 194.05833 69.62813 194.76146Q70.12813 195.46458 70.84688 195.46458Q71.58125 195.46458 72.06563 194.76146Q72.56563 194.05833 72.56563 191.94896Q72.56563 189.82396 72.06563 189.13646Q71.58125 188.43333 70.83125 188.43333Q70.1125 188.43333 69.675 189.04271Q69.12813 189.82396 69.12813 191.94896ZM75.05 191.94896Q75.05 190.41771 75.3625 189.49583Q75.675 188.55833 76.28438 188.05833Q76.90938 187.55833 77.84688 187.55833Q78.53438 187.55833 79.05 187.83958Q79.58125 188.12083 79.925 188.65208Q80.26875 189.16771 80.45625 189.91771Q80.64375 190.66771 80.64375 191.94896Q80.64375 193.46458 80.33125 194.38646Q80.03438 195.30833 79.40938 195.82396Q78.8 196.32396 77.84688 196.32396Q76.6125 196.32396 75.89375 195.43333Q75.05 194.37083 75.05 191.94896ZM76.12813 191.94896Q76.12813 194.05833 76.62813 194.76146Q77.12813 195.46458 77.84688 195.46458Q78.58125 195.46458 79.06563 194.76146Q79.56563 194.05833 79.56563 191.94896Q79.56563 189.82396 79.06563 189.13646Q78.58125 188.43333 77.83125 188.43333Q77.1125 188.43333 76.675 189.04271Q76.12813 189.82396 76.12813 191.94896ZM82.25313 189.65208Q82.25313 188.73021 82.70625 188.08958Q83.175 187.44896 84.05 187.44896Q84.8625 187.44896 85.39375 188.02708Q85.925 188.60521 85.925 189.71458Q85.925 190.80833 85.37813 191.40208Q84.84688 191.98021 84.06563 191.98021Q83.28438 191.98021 82.76875 191.40208Q82.25313 190.82396 82.25313 189.65208ZM84.08125 188.16771Q83.69063 188.16771 83.425 188.51146Q83.175 188.85521 83.175 189.76146Q83.175 190.58958 83.425 190.93333Q83.69063 191.26146 84.08125 191.26146Q84.4875 191.26146 84.7375 190.91771Q85.00313 190.57396 85.00313 189.68333Q85.00313 188.83958 84.7375 188.51146Q84.47188 188.16771 84.08125 188.16771ZM84.08125 196.49583L88.78438 187.44896L89.64375 187.44896L84.95625 196.49583L84.08125 196.49583ZM87.8 194.16771Q87.8 193.24583 88.25313 192.60521Q88.72188 191.96458 89.6125 191.96458Q90.425 191.96458 90.95625 192.54271Q91.4875 193.10521 91.4875 194.23021Q91.4875 195.32396 90.94063 195.91771Q90.40938 196.49583 89.6125 196.49583Q88.84688 196.49583 88.31563 195.91771Q87.8 195.33958 87.8 194.16771ZM89.64375 192.68333Q89.2375 192.68333 88.97188 193.02708Q88.72188 193.37083 88.72188 194.27708Q88.72188 195.08958 88.9875 195.43333Q89.25313 195.77708 89.64375 195.77708Q90.03438 195.77708 90.3 195.43333Q90.56563 195.08958 90.56563 194.18333Q90.56563 193.35521 90.3 193.02708Q90.03438 192.68333 89.64375 192.68333Z" fill-rule="nonzero"/><path fill="#000000" d="M56.51875 119.56563L55.471874 119.64375Q55.33125 119.01875 55.08125 118.7375Q54.64375 118.28438 54.01875 118.28438Q53.51875 118.28438 53.128124 118.56563Q52.64375 118.94063 52.346874 119.64375Q52.065624 120.33125 52.05 121.6125Q52.425 121.03438 52.971874 120.75313Q53.534374 120.47188 54.14375 120.47188Q55.190624 120.47188 55.925 121.25313Q56.675 122.03438 56.675 123.25313Q56.675 124.06563 56.315624 124.76875Q55.971874 125.45625 55.3625 125.83125Q54.753124 126.19063 53.9875 126.19063Q52.659374 126.19063 51.83125 125.22188Q51.003124 124.25313 51.003124 122.03438Q51.003124 119.53438 51.925 118.40938Q52.721874 117.425 54.08125 117.425Q55.096874 117.425 55.7375 118.00313Q56.39375 118.56563 56.51875 119.56563ZM52.221874 123.26875Q52.221874 123.81563 52.440624 124.31563Q52.675 124.8 53.08125 125.06563Q53.503124 125.33125 53.971874 125.33125Q54.628124 125.33125 55.1125 124.8Q55.596874 124.25313 55.596874 123.33125Q55.596874 122.44063 55.1125 121.925Q54.64375 121.40938 53.925 121.40938Q53.20625 121.40938 52.70625 121.925Q52.221874 122.44063 52.221874 123.26875ZM58.05 121.81563Q58.05 120.28438 58.3625 119.3625Q58.675 118.425 59.284374 117.925Q59.909374 117.425 60.846874 117.425Q61.534374 117.425 62.05 117.70625Q62.58125 117.9875 62.925 118.51875Q63.26875 119.03438 63.45625 119.78438Q63.64375 120.53438 63.64375 121.81563Q63.64375 123.33125 63.33125 124.25313Q63.034374 125.175 62.409374 125.69063Q61.8 126.19063 60.846874 126.19063Q59.6125 126.19063 58.89375 125.3Q58.05 124.2375 58.05 121.81563ZM59.128124 121.81563Q59.128124 123.925 59.628124 124.62813Q60.128124 125.33125 60.846874 125.33125Q61.58125 125.33125 62.065624 124.62813Q62.565624 123.925 62.565624 121.81563Q62.565624 119.69063 62.065624 119.00313Q61.58125 118.3 60.83125 118.3Q60.1125 118.3 59.675 118.90938Q59.128124 119.69063 59.128124 121.81563ZM65.64375 126.05L65.64375 124.84688L66.84688 124.84688L66.84688 126.05L65.64375 126.05ZM68.05 121.81563Q68.05 120.28438 68.3625 119.3625Q68.675 118.425 69.28438 117.925Q69.90938 117.425 70.84688 117.425Q71.53438 117.425 72.05 117.70625Q72.58125 117.9875 72.925 118.51875Q73.26875 119.03438 73.45625 119.78438Q73.64375 120.53438 73.64375 121.81563Q73.64375 123.33125 73.33125 124.25313Q73.03438 125.175 72.40938 125.69063Q71.8 126.19063 70.84688 126.19063Q69.6125 126.19063 68.89375 125.3Q68.05 124.2375 68.05 121.81563ZM69.12813 121.81563Q69.12813 123.925 69.62813 124.62813Q70.12813 125.33125 70.84688 125.33125Q71.58125 125.33125 72.06563 124.62813Q72.56563 123.925 72.56563 121.81563Q72.56563 119.69063 72.06563 119.00313Q71.58125 118.3 70.83125 118.3Q70.1125 118.3 69.675 118.90938Q69.12813 119.69063 69.12813 121.81563ZM75.05 121.81563Q75.05 120.28438 75.3625 119.3625Q75.675 118.425 76.28438 117.925Q76.90938 117.425 77.84688 117.425Q78.53438 117.425 79.05 117.70625Q79.58125 117.9875 79.925 118.51875Q80.26875 119.03438 80.45625 119.78438Q80.64375 120.53438 80.64375 121.81563Q80.64375 123.33125 80.33125 124.25313Q80.03438 125.175 79.40938 125.69063Q78.8 126.19063 77.84688 126.19063Q76.6125 126.19063 75.89375 125.3Q75.05 124.2375 75.05 121.81563ZM76.12813 121.81563Q76.12813 123.925 76.62813 124.62813Q77.12813 125.33125 77.84688 125.33125Q78.58125 125.33125 79.06563 124.62813Q79.56563 123.925 79.56563 121.81563Q79.56563 119.69063 79.06563 119.00313Q78.58125 118.3 77.83125 118.3Q77.1125 118.3 76.675 118.90938Q76.12813 119.69063 76.12813 121.81563ZM82.25313 119.51875Q82.25313 118.59688 82.70625 117.95625Q83.175 117.31563 84.05 117.31563Q84.8625 117.31563 85.39375 117.89375Q85.925 118.47188 85.925 119.58125Q85.925 120.675 85.37813 121.26875Q84.84688 121.84688 84.06563 121.84688Q83.28438 121.84688 82.76875 121.26875Q82.25313 120.69063 82.25313 119.51875ZM84.08125 118.03438Q83.69063 118.03438 83.425 118.37813Q83.175 118.72188 83.175 119.62813Q83.175 120.45625 83.425 120.8Q83.69063 121.12813 84.08125 121.12813Q84.4875 121.12813 84.7375 120.78438Q85.00313 120.44063 85.00313 119.55Q85.00313 118.70625 84.7375 118.37813Q84.47188 118.03438 84.08125 118.03438ZM84.08125 126.3625L88.78438 117.31563L89.64375 117.31563L84.95625 126.3625L84.08125 126.3625ZM87.8 124.03438Q87.8 123.1125 88.25313 122.47188Q88.72188 121.83125 89.6125 121.83125Q90.425 121.83125 90.95625 122.40938Q91.4875 122.97188 91.4875 124.09688Q91.4875 125.19063 90.94063 125.78438Q90.40938 126.3625 89.6125 126.3625Q88.84688 126.3625 88.31563 125.78438Q87.8 125.20625 87.8 124.03438ZM89.64375 122.55Q89.2375 122.55 88.97188 122.89375Q88.72188 123.2375 88.72188 124.14375Q88.72188 124.95625 88.9875 125.3Q89.25313 125.64375 89.64375 125.64375Q90.03438 125.64375 90.3 125.3Q90.56563 124.95625 90.56563 124.05Q90.56563 123.22188 90.3 122.89375Q90.03438 122.55 89.64375 122.55Z" fill-rule="nonzero"/><path fill="#000000" d="M52.675 51.260418Q52.01875 51.010418 51.690624 50.572918Q51.378124 50.119793 51.378124 49.510418Q51.378124 48.572918 52.05 47.932293Q52.7375 47.291668 53.846874 47.291668Q54.971874 47.291668 55.659374 47.947918Q56.346874 48.604168 56.346874 49.541668Q56.346874 50.135418 56.034374 50.572918Q55.721874 51.010418 55.08125 51.260418Q55.878124 51.510418 56.284374 52.088543Q56.690624 52.666668 56.690624 53.463543Q56.690624 54.557293 55.909374 55.307293Q55.14375 56.057293 53.8625 56.057293Q52.596874 56.057293 51.815624 55.307293Q51.034374 54.557293 51.034374 53.432293Q51.034374 52.588543 51.45625 52.026043Q51.89375 51.463543 52.675 51.260418ZM52.45625 49.463543Q52.45625 50.072918 52.846874 50.463543Q53.253124 50.854168 53.878124 50.854168Q54.4875 50.854168 54.878124 50.479168Q55.26875 50.088543 55.26875 49.526043Q55.26875 48.947918 54.8625 48.557293Q54.45625 48.151043 53.8625 48.151043Q53.253124 48.151043 52.846874 48.541668Q52.45625 48.932293 52.45625 49.463543ZM52.128124 53.432293Q52.128124 53.885418 52.33125 54.307293Q52.55 54.729168 52.971874 54.963543Q53.39375 55.197918 53.878124 55.197918Q54.628124 55.197918 55.1125 54.713543Q55.6125 54.229168 55.6125 53.479168Q55.6125 52.713543 55.1125 52.213543Q54.6125 51.713543 53.846874 51.713543Q53.096874 51.713543 52.6125 52.213543Q52.128124 52.697918 52.128124 53.432293ZM58.05 51.682293Q58.05 50.151043 58.3625 49.229168Q58.675 48.291668 59.284374 47.791668Q59.909374 47.291668 60.846874 47.291668Q61.534374 47.291668 62.05 47.572918Q62.58125 47.854168 62.925 48.385418Q63.26875 48.901043 63.45625 49.651043Q63.64375 50.401043 63.64375 51.682293Q63.64375 53.197918 63.33125 54.119793Q63.034374 55.041668 62.409374 55.557293Q61.8 56.057293 60.846874 56.057293Q59.6125 56.057293 58.89375 55.166668Q58.05 54.104168 58.05 51.682293ZM59.128124 51.682293Q59.128124 53.791668 59.628124 54.494793Q60.128124 55.197918 60.846874 55.197918Q61.58125 55.197918 62.065624 54.494793Q62.565624 53.791668 62.565624 51.682293Q62.565624 49.557293 62.065624 48.869793Q61.58125 48.166668 60.83125 48.166668Q60.1125 48.166668 59.675 48.776043Q59.128124 49.557293 59.128124 51.682293ZM65.64375 55.916668L65.64375 54.713543L66.84688 54.713543L66.84688 55.916668L65.64375 55.916668ZM68.05 51.682293Q68.05 50.151043 68.3625 49.229168Q68.675 48.291668 69.28438 47.791668Q69.90938 47.291668 70.84688 47.291668Q71.53438 47.291668 72.05 47.572918Q72.58125 47.854168 72.925 48.385418Q73.26875 48.901043 73.45625 49.651043Q73.64375 50.401043 73.64375 51.682293Q73.64375 53.197918 73.33125 54.119793Q73.03438 55.041668 72.40938 55.557293Q71.8 56.057293 70.84688 56.057293Q69.6125 56.057293 68.89375 55.166668Q68.05 54.104168 68.05 51.682293ZM69.12813 51.682293Q69.12813 53.791668 69.62813 54.494793Q70.12813 55.197918 70.84688 55.197918Q71.58125 55.197918 72.06563 54.494793Q72.56563 53.791668 72.56563 51.682293Q72.56563 49.557293 72.06563 48.869793Q71.58125 48.166668 70.83125 48.166668Q70.1125 48.166668 69.675 48.776043Q69.12813 49.557293 69.12813 51.682293ZM75.05 51.682293Q75.05 50.151043 75.3625 49.229168Q75.675 48.291668 76.28438 47.791668Q76.90938 47.291668 77.84688 47.291668Q78.53438 47.291668 79.05 47.572918Q79.58125 47.854168 79.925 48.385418Q80.26875 48.901043 80.45625 49.651043Q80.64375 50.401043 80.64375 51.682293Q80.64375 53.197918 80.33125 54.119793Q80.03438 55.041668 79.40938 55.557293Q78.8 56.057293 77.84688 56.057293Q76.6125 56.057293 75.89375 55.166668Q75.05 54.104168 75.05 51.682293ZM76.12813 51.682293Q76.12813 53.791668 76.62813 54.494793Q77.12813 55.197918 77.84688 55.197918Q78.58125 55.197918 79.06563 54.494793Q79.56563 53.791668 79.56563 51.682293Q79.56563 49.557293 79.06563 48.869793Q78.58125 48.166668 77.83125 48.166668Q77.1125 48.166668 76.675 48.776043Q76.12813 49.557293 76.12813 51.682293ZM82.25313 49.385418Q82.25313 48.463543 82.70625 47.822918Q83.175 47.182293 84.05 47.182293Q84.8625 47.182293 85.39375 47.760418Q85.925 48.338543 85.925 49.447918Q85.925 50.541668 85.37813 51.135418Q84.84688 51.713543 84.06563 51.713543Q83.28438 51.713543 82.76875 51.135418Q82.25313 50.557293 82.25313 49.385418ZM84.08125 47.901043Q83.69063 47.901043 83.425 48.244793Q83.175 48.588543 83.175 49.494793Q83.175 50.322918 83.425 50.666668Q83.69063 50.994793 84.08125 50.994793Q84.4875 50.994793 84.7375 50.651043Q85.00313 50.307293 85.00313 49.416668Q85.00313 48.572918 84.7375 48.244793Q84.47188 47.901043 84.08125 47.901043ZM84.08125 56.229168L88.78438 47.182293L89.64375 47.182293L84.95625 56.229168L84.08125 56.229168ZM87.8 53.901043Q87.8 52.979168 88.25313 52.338543Q88.72188 51.697918 89.6125 51.697918Q90.425 51.697918 90.95625 52.276043Q91.4875 52.838543 91.4875 53.963543Q91.4875 55.057293 90.94063 55.651043Q90.40938 56.229168 89.6125 56.229168Q88.84688 56.229168 88.31563 55.651043Q87.8 55.072918 87.8 53.901043ZM89.64375 52.416668Q89.2375 52.416668 88.97188 52.760418Q88.72188 53.104168 88.72188 54.010418Q88.72188 54.822918 88.9875 55.166668Q89.25313 55.510418 89.64375 55.510418Q90.03438 55.510418 90.3 55.166668Q90.56563 54.822918 90.56563 53.916668Q90.56563 53.088543 90.3 52.760418Q90.03438 52.416668 89.64375 52.416668Z" fill-rule="nonzero"/><path fill="#000000" d="M163.40463 349.45L163.40463 340.85626L166.65463 340.85626Q167.49838 340.85626 167.9515 340.9344Q168.59213 341.04376 169.014 341.34064Q169.4515 341.6375 169.7015 342.16876Q169.96713 342.7 169.96713 343.34064Q169.96713 344.4344 169.264 345.2Q168.5765 345.95 166.74838 345.95L164.54526 345.95L164.54526 349.45L163.40463 349.45ZM164.54526 344.95L166.764 344.95Q167.87338 344.95 168.3265 344.54376Q168.79526 344.1219 168.79526 343.3719Q168.79526 342.84064 168.514 342.46564Q168.24838 342.075 167.81088 341.95Q167.514 341.8719 166.74838 341.8719L164.54526 341.8719L164.54526 344.95ZM175.35776 349.45L175.35776 348.52814Q174.62338 349.59064 173.37338 349.59064Q172.8265 349.59064 172.34213 349.3875Q171.87338 349.16876 171.639 348.85626Q171.40463 348.52814 171.31088 348.0594Q171.24838 347.7625 171.24838 347.075L171.24838 343.23126L172.31088 343.23126L172.31088 346.6844Q172.31088 347.4969 172.37338 347.79376Q172.46713 348.2 172.77963 348.45Q173.10776 348.6844 173.59213 348.6844Q174.06088 348.6844 174.46713 348.45Q174.889 348.2 175.06088 347.77814Q175.24838 347.35626 175.24838 346.5594L175.24838 343.23126L176.29526 343.23126L176.29526 349.45L175.35776 349.45ZM178.27963 349.45L178.27963 343.23126L179.21713 343.23126L179.21713 344.10626Q179.90463 343.09064 181.2015 343.09064Q181.764 343.09064 182.23276 343.29376Q182.71713 343.4969 182.9515 343.825Q183.18588 344.15314 183.27963 344.59064Q183.3265 344.8875 183.3265 345.6219L183.3265 349.45L182.27963 349.45L182.27963 345.66876Q182.27963 345.0125 182.15463 344.7Q182.02963 344.3875 181.71713 344.2Q181.40463 343.9969 180.98276 343.9969Q180.31088 343.9969 179.81088 344.4344Q179.3265 344.85626 179.3265 346.04376L179.3265 349.45L178.27963 349.45Z" fill-rule="nonzero"/><path fill="#000000" d="M247.04112 346.6844L248.10362 346.59064Q248.18175 347.2469 248.463 347.65314Q248.74425 348.0594 249.32237 348.325Q249.91612 348.575 250.6505 348.575Q251.29112 348.575 251.79112 348.3875Q252.29112 348.1844 252.5255 347.85626Q252.7755 347.5125 252.7755 347.1219Q252.7755 346.71564 252.54112 346.41876Q252.30675 346.10626 251.7755 345.90314Q251.41612 345.7625 250.22862 345.48126Q249.05675 345.2 248.588 344.95Q247.963 344.6219 247.66612 344.15314Q247.36925 343.66876 247.36925 343.075Q247.36925 342.4344 247.72862 341.8719Q248.10362 341.29376 248.80675 341.0125Q249.5255 340.71564 250.38487 340.71564Q251.338 340.71564 252.07237 341.02814Q252.80675 341.325 253.19737 341.9344Q253.588 342.52814 253.61925 343.27814L252.5255 343.35626Q252.43175 342.54376 251.91612 342.1375Q251.41612 341.71564 250.43175 341.71564Q249.4005 341.71564 248.93175 342.09064Q248.463 342.46564 248.463 342.9969Q248.463 343.46564 248.79112 343.7625Q249.11925 344.0594 250.49425 344.3719Q251.88487 344.6844 252.4005 344.91876Q253.1505 345.27814 253.50987 345.8094Q253.86925 346.325 253.86925 347.02814Q253.86925 347.71564 253.47862 348.325Q253.088 348.91876 252.35362 349.2625Q251.61925 349.59064 250.69737 349.59064Q249.5255 349.59064 248.72862 349.2625Q247.94737 348.91876 247.49425 348.23126Q247.05675 347.54376 247.04112 346.6844ZM255.29112 342.075L255.29112 340.85626L256.35364 340.85626L256.35364 342.075L255.29112 342.075ZM255.29112 349.45L255.29112 343.23126L256.35364 343.23126L256.35364 349.45L255.29112 349.45ZM257.588 349.45L259.85364 346.21564L257.7599 343.23126L259.0724 343.23126L260.0255 344.6844Q260.29114 345.10626 260.463 345.3875Q260.713 344.9969 260.93176 344.7L261.97864 343.23126L263.24426 343.23126L261.088 346.15314L263.4005 349.45L262.11926 349.45L260.838 347.5125L260.49426 346.9969L258.85364 349.45L257.588 349.45ZM262.86926 346.8719L262.86926 345.8094L266.11926 345.8094L266.11926 346.8719L262.86926 346.8719ZM268.43176 349.45L266.5255 343.23126L267.61926 343.23126L268.60364 346.825L268.97864 348.15314Q269.0099 348.0594 269.30676 346.8719L270.29114 343.23126L271.36926 343.23126L272.30676 346.84064L272.61926 348.02814L272.97864 346.825L274.04114 343.23126L275.0724 343.23126L273.11926 349.45L272.0255 349.45L271.04114 345.71564L270.79114 344.66876L269.54114 349.45L268.43176 349.45ZM275.9005 346.34064Q275.9005 344.60626 276.85364 343.77814Q277.6505 343.09064 278.80676 343.09064Q280.088 343.09064 280.9005 343.9344Q281.72864 344.7625 281.72864 346.2469Q281.72864 347.45 281.36926 348.1375Q281.0099 348.825 280.30676 349.21564Q279.61926 349.59064 278.80676 349.59064Q277.5099 349.59064 276.6974 348.7625Q275.9005 347.91876 275.9005 346.34064ZM276.97864 346.34064Q276.97864 347.52814 277.49426 348.1219Q278.0255 348.71564 278.80676 348.71564Q279.60364 348.71564 280.11926 348.1219Q280.6349 347.52814 280.6349 346.3094Q280.6349 345.15314 280.10364 344.5594Q279.588 343.96564 278.80676 343.96564Q278.0255 343.96564 277.49426 344.5594Q276.97864 345.1375 276.97864 346.34064ZM283.2755 349.45L283.2755 343.23126L284.22864 343.23126L284.22864 344.16876Q284.588 343.5125 284.8849 343.3094Q285.1974 343.09064 285.5724 343.09064Q286.10364 343.09064 286.6505 343.41876L286.29114 344.40314Q285.9005 344.16876 285.5255 344.16876Q285.16614 344.16876 284.8849 344.3875Q284.61926 344.59064 284.5099 344.96564Q284.3224 345.52814 284.3224 346.1844L284.3224 349.45L283.2755 349.45ZM291.3224 349.45L291.3224 348.66876Q290.72864 349.59064 289.588 349.59064Q288.838 349.59064 288.213 349.1844Q287.588 348.7625 287.24426 348.02814Q286.9005 347.29376 286.9005 346.34064Q286.9005 345.41876 287.213 344.65314Q287.5255 343.8875 288.1505 343.4969Q288.7755 343.09064 289.54114 343.09064Q290.10364 343.09064 290.54114 343.325Q290.97864 343.5594 291.2599 343.9344L291.2599 340.85626L292.30676 340.85626L292.30676 349.45L291.3224 349.45ZM287.99426 346.34064Q287.99426 347.54376 288.49426 348.1375Q288.99426 348.71564 289.68176 348.71564Q290.36926 348.71564 290.85364 348.15314Q291.338 347.59064 291.338 346.4344Q291.338 345.15314 290.838 344.5594Q290.35364 343.96564 289.6349 343.96564Q288.93176 343.96564 288.463 344.54376Q287.99426 345.10626 287.99426 346.34064ZM296.86926 347.59064L297.9005 347.4344Q297.99426 348.0594 298.3849 348.3875Q298.79114 348.71564 299.5255 348.71564Q300.24426 348.71564 300.588 348.4344Q300.9474 348.1375 300.9474 347.73126Q300.9474 347.3719 300.6349 347.16876Q300.41614 347.02814 299.55676 346.8094Q298.4005 346.5125 297.9474 346.3094Q297.5099 346.09064 297.2755 345.71564Q297.04114 345.34064 297.04114 344.8719Q297.04114 344.46564 297.22864 344.10626Q297.41614 343.7469 297.74426 343.5125Q297.99426 343.34064 298.41614 343.21564Q298.838 343.09064 299.338 343.09064Q300.05676 343.09064 300.60364 343.3094Q301.16614 343.5125 301.43176 343.8719Q301.6974 344.23126 301.79114 344.825L300.7599 344.96564Q300.6974 344.4969 300.35364 344.23126Q300.0255 343.95 299.4005 343.95Q298.68176 343.95 298.36926 344.2Q298.05676 344.4344 298.05676 344.7625Q298.05676 344.96564 298.18176 345.1219Q298.3224 345.29376 298.588 345.40314Q298.74426 345.46564 299.5255 345.66876Q300.6505 345.98126 301.088 346.16876Q301.5255 346.35626 301.7755 346.71564Q302.0255 347.075 302.0255 347.6219Q302.0255 348.15314 301.713 348.6219Q301.41614 349.075 300.838 349.34064Q300.2599 349.59064 299.5255 349.59064Q298.30676 349.59064 297.66614 349.09064Q297.04114 348.575 296.86926 347.59064ZM306.588 348.5125L306.74426 349.4344Q306.29114 349.52814 305.9474 349.52814Q305.36926 349.52814 305.05676 349.35626Q304.74426 349.16876 304.60364 348.8719Q304.47864 348.575 304.47864 347.6219L304.47864 344.04376L303.713 344.04376L303.713 343.23126L304.47864 343.23126L304.47864 341.6844L305.5255 341.0594L305.5255 343.23126L306.588 343.23126L306.588 344.04376L305.5255 344.04376L305.5255 347.6844Q305.5255 348.1375 305.5724 348.2625Q305.6349 348.3875 305.7599 348.46564Q305.8849 348.54376 306.11926 348.54376Q306.30676 348.54376 306.588 348.5125ZM306.9005 346.34064Q306.9005 344.60626 307.85364 343.77814Q308.6505 343.09064 309.80676 343.09064Q311.088 343.09064 311.9005 343.9344Q312.72864 344.7625 312.72864 346.2469Q312.72864 347.45 312.36926 348.1375Q312.0099 348.825 311.30676 349.21564Q310.61926 349.59064 309.80676 349.59064Q308.5099 349.59064 307.6974 348.7625Q306.9005 347.91876 306.9005 346.34064ZM307.97864 346.34064Q307.97864 347.52814 308.49426 348.1219Q309.0255 348.71564 309.80676 348.71564Q310.60364 348.71564 311.11926 348.1219Q311.6349 347.52814 311.6349 346.3094Q311.6349 345.15314 311.10364 344.5594Q310.588 343.96564 309.80676 343.96564Q309.0255 343.96564 308.49426 344.5594Q307.97864 345.1375 307.97864 346.34064ZM314.2755 349.45L314.2755 343.23126L315.22864 343.23126L315.22864 344.16876Q315.588 343.5125 315.8849 343.3094Q316.1974 343.09064 316.5724 343.09064Q317.10364 343.09064 317.6505 343.41876L317.29114 344.40314Q316.9005 344.16876 316.5255 344.16876Q316.16614 344.16876 315.8849 344.3875Q315.61926 344.59064 315.5099 344.96564Q315.3224 345.52814 315.3224 346.1844L315.3224 349.45L314.2755 349.45ZM318.24426 351.84064L318.11926 350.85626Q318.463 350.95 318.72864 350.95Q319.0724 350.95 319.2755 350.825Q319.49426 350.71564 319.6349 350.5125Q319.72864 350.34064 319.963 349.71564Q319.97864 349.6375 320.05676 349.46564L317.68176 343.23126L318.8224 343.23126L320.11926 346.825Q320.36926 347.5125 320.5724 348.27814Q320.7599 347.54376 321.0099 346.85626L322.338 343.23126L323.3849 343.23126L321.0255 349.5594Q320.6349 350.575 320.43176 350.96564Q320.1505 351.4969 319.7755 351.73126Q319.41614 351.98126 318.91614 351.98126Q318.61926 351.98126 318.24426 351.84064Z" fill-rule="nonzero"/><path fill="#000000" d="M379.4276 349.45L379.4276 340.85626L382.6776 340.85626Q383.52136 340.85626 383.9745 340.9344Q384.6151 341.04376 385.037 341.34064Q385.4745 341.6375 385.7245 342.16876Q385.9901 342.7 385.9901 343.34064Q385.9901 344.4344 385.287 345.2Q384.5995 345.95 382.77136 345.95L380.56824 345.95L380.56824 349.45L379.4276 349.45ZM380.56824 344.95L382.787 344.95Q383.89636 344.95 384.3495 344.54376Q384.81824 344.1219 384.81824 343.3719Q384.81824 342.84064 384.537 342.46564Q384.27136 342.075 383.83386 341.95Q383.537 341.8719 382.77136 341.8719L380.56824 341.8719L380.56824 344.95ZM386.912 346.34064Q386.912 344.60626 387.8651 343.77814Q388.662 343.09064 389.81824 343.09064Q391.0995 343.09064 391.912 343.9344Q392.7401 344.7625 392.7401 346.2469Q392.7401 347.45 392.38074 348.1375Q392.02136 348.825 391.31824 349.21564Q390.63074 349.59064 389.81824 349.59064Q388.52136 349.59064 387.70886 348.7625Q386.912 347.91876 386.912 346.34064ZM387.9901 346.34064Q387.9901 347.52814 388.50574 348.1219Q389.037 348.71564 389.81824 348.71564Q390.6151 348.71564 391.13074 348.1219Q391.64636 347.52814 391.64636 346.3094Q391.64636 345.15314 391.1151 344.5594Q390.5995 343.96564 389.81824 343.96564Q389.037 343.96564 388.50574 344.5594Q387.9901 345.1375 387.9901 346.34064ZM398.5526 347.45L399.64636 347.575Q399.39636 348.52814 398.69324 349.0594Q397.9901 349.59064 396.912 349.59064Q395.5526 349.59064 394.7401 348.7469Q393.94324 347.90314 393.94324 346.3875Q393.94324 344.825 394.75574 343.96564Q395.56824 343.09064 396.8495 343.09064Q398.0995 343.09064 398.88074 343.9344Q399.6776 344.77814 399.6776 346.325Q399.6776 346.41876 399.6776 346.60626L395.037 346.60626Q395.0995 347.6375 395.6151 348.1844Q396.13074 348.71564 396.912 348.71564Q397.4901 348.71564 397.89636 348.41876Q398.31824 348.10626 398.5526 347.45ZM395.0995 345.7469L398.56824 345.7469Q398.50574 344.95 398.1776 344.5594Q397.662 343.95 396.8651 343.95Q396.13074 343.95 395.63074 344.4344Q395.14636 344.91876 395.0995 345.7469ZM403.5995 348.5125L403.75574 349.4344Q403.3026 349.52814 402.95886 349.52814Q402.38074 349.52814 402.06824 349.35626Q401.75574 349.16876 401.6151 348.8719Q401.4901 348.575 401.4901 347.6219L401.4901 344.04376L400.7245 344.04376L400.7245 343.23126L401.4901 343.23126L401.4901 341.6844L402.537 341.0594L402.537 343.23126L403.5995 343.23126L403.5995 344.04376L402.537 344.04376L402.537 347.6844Q402.537 348.1375 402.58386 348.2625Q402.64636 348.3875 402.77136 348.46564Q402.89636 348.54376 403.13074 348.54376Q403.31824 348.54376 403.5995 348.5125ZM404.287 349.45L404.287 343.23126L405.2401 343.23126L405.2401 344.16876Q405.5995 343.5125 405.89636 343.3094Q406.20886 343.09064 406.58386 343.09064Q407.1151 343.09064 407.662 343.41876L407.3026 344.40314Q406.912 344.16876 406.537 344.16876Q406.1776 344.16876 405.89636 344.3875Q405.63074 344.59064 405.52136 344.96564Q405.33386 345.52814 405.33386 346.1844L405.33386 349.45L404.287 349.45ZM408.25574 351.84064L408.13074 350.85626Q408.4745 350.95 408.7401 350.95Q409.08386 350.95 409.287 350.825Q409.50574 350.71564 409.64636 350.5125Q409.7401 350.34064 409.9745 349.71564Q409.9901 349.6375 410.06824 349.46564L407.69324 343.23126L408.83386 343.23126L410.13074 346.825Q410.38074 347.5125 410.58386 348.27814Q410.77136 347.54376 411.02136 346.85626L412.3495 343.23126L413.39636 343.23126L411.037 349.5594Q410.64636 350.575 410.44324 350.96564Q410.162 351.4969 409.787 351.73126Q409.4276 351.98126 408.9276 351.98126Q408.63074 351.98126 408.25574 351.84064Z" fill-rule="nonzero"/><path fill="#000000" d="M478.06412 346.6844L479.12662 346.59064Q479.20474 347.2469 479.486 347.65314Q479.76724 348.0594 480.34537 348.325Q480.93912 348.575 481.6735 348.575Q482.31412 348.575 482.81412 348.3875Q483.31412 348.1844 483.5485 347.85626Q483.7985 347.5125 483.7985 347.1219Q483.7985 346.71564 483.56412 346.41876Q483.32974 346.10626 482.7985 345.90314Q482.43912 345.7625 481.25162 345.48126Q480.07974 345.2 479.611 344.95Q478.986 344.6219 478.68912 344.15314Q478.39224 343.66876 478.39224 343.075Q478.39224 342.4344 478.75162 341.8719Q479.12662 341.29376 479.82974 341.0125Q480.5485 340.71564 481.40787 340.71564Q482.361 340.71564 483.09537 341.02814Q483.82974 341.325 484.22037 341.9344Q484.611 342.52814 484.64224 343.27814L483.5485 343.35626Q483.45474 342.54376 482.93912 342.1375Q482.43912 341.71564 481.45474 341.71564Q480.4235 341.71564 479.95474 342.09064Q479.486 342.46564 479.486 342.9969Q479.486 343.46564 479.81412 343.7625Q480.14224 344.0594 481.51724 344.3719Q482.90787 344.6844 483.4235 344.91876Q484.1735 345.27814 484.53287 345.8094Q484.89224 346.325 484.89224 347.02814Q484.89224 347.71564 484.50162 348.325Q484.111 348.91876 483.37662 349.2625Q482.64224 349.59064 481.72037 349.59064Q480.5485 349.59064 479.75162 349.2625Q478.97037 348.91876 478.51724 348.23126Q478.07974 347.54376 478.06412 346.6844ZM486.31412 349.45L486.31412 340.85626L487.361 340.85626L487.361 343.9344Q488.09537 343.09064 489.22037 343.09064Q489.9235 343.09064 490.4235 343.3719Q490.93912 343.6375 491.15787 344.1219Q491.37662 344.59064 491.37662 345.5125L491.37662 349.45L490.32974 349.45L490.32974 345.5125Q490.32974 344.71564 489.986 344.35626Q489.64224 343.9969 489.01724 343.9969Q488.5485 343.9969 488.12662 344.2469Q487.72037 344.48126 487.53287 344.90314Q487.361 345.3094 487.361 346.04376L487.361 349.45L486.31412 349.45ZM492.9235 346.34064Q492.9235 344.60626 493.87662 343.77814Q494.6735 343.09064 495.82974 343.09064Q497.111 343.09064 497.9235 343.9344Q498.75162 344.7625 498.75162 346.2469Q498.75162 347.45 498.39224 348.1375Q498.03287 348.825 497.32974 349.21564Q496.64224 349.59064 495.82974 349.59064Q494.53287 349.59064 493.72037 348.7625Q492.9235 347.91876 492.9235 346.34064ZM494.00162 346.34064Q494.00162 347.52814 494.51724 348.1219Q495.0485 348.71564 495.82974 348.71564Q496.62662 348.71564 497.14224 348.1219Q497.65787 347.52814 497.65787 346.3094Q497.65787 345.15314 497.12662 344.5594Q496.611 343.96564 495.82974 343.96564Q495.0485 343.96564 494.51724 344.5594Q494.00162 345.1375 494.00162 346.34064ZM500.2985 349.45L500.2985 343.23126L501.25162 343.23126L501.25162 344.16876Q501.611 343.5125 501.90787 343.3094Q502.22037 343.09064 502.59537 343.09064Q503.12662 343.09064 503.6735 343.41876L503.31412 344.40314Q502.9235 344.16876 502.5485 344.16876Q502.18912 344.16876 501.90787 344.3875Q501.64224 344.59064 501.53287 344.96564Q501.34537 345.52814 501.34537 346.1844L501.34537 349.45L500.2985 349.45ZM506.611 348.5125L506.76724 349.4344Q506.31412 349.52814 505.97037 349.52814Q505.39224 349.52814 505.07974 349.35626Q504.76724 349.16876 504.62662 348.8719Q504.50162 348.575 504.50162 347.6219L504.50162 344.04376L503.736 344.04376L503.736 343.23126L504.50162 343.23126L504.50162 341.6844L505.5485 341.0594L505.5485 343.23126L506.611 343.23126L506.611 344.04376L505.5485 344.04376L505.5485 347.6844Q505.5485 348.1375 505.59537 348.2625Q505.65787 348.3875 505.78287 348.46564Q505.90787 348.54376 506.14224 348.54376Q506.32974 348.54376 506.611 348.5125ZM509.89224 347.59064L510.9235 347.4344Q511.01724 348.0594 511.40787 348.3875Q511.81412 348.71564 512.54846 348.71564Q513.2672 348.71564 513.61096 348.4344Q513.97034 348.1375 513.97034 347.73126Q513.97034 347.3719 513.65784 347.16876Q513.4391 347.02814 512.5797 346.8094Q511.4235 346.5125 510.97037 346.3094Q510.53287 346.09064 510.2985 345.71564Q510.06412 345.34064 510.06412 344.8719Q510.06412 344.46564 510.25162 344.10626Q510.43912 343.7469 510.76724 343.5125Q511.01724 343.34064 511.43912 343.21564Q511.861 343.09064 512.36096 343.09064Q513.0797 343.09064 513.6266 343.3094Q514.1891 343.5125 514.4547 343.8719Q514.72034 344.23126 514.8141 344.825L513.78284 344.96564Q513.72034 344.4969 513.3766 344.23126Q513.04846 343.95 512.42346 343.95Q511.70474 343.95 511.39224 344.2Q511.07974 344.4344 511.07974 344.7625Q511.07974 344.96564 511.20474 345.1219Q511.34537 345.29376 511.611 345.40314Q511.76724 345.46564 512.54846 345.66876Q513.67346 345.98126 514.11096 346.16876Q514.54846 346.35626 514.79846 346.71564Q515.04846 347.075 515.04846 347.6219Q515.04846 348.15314 514.73596 348.6219Q514.4391 349.075 513.86096 349.34064Q513.28284 349.59064 512.54846 349.59064Q511.32974 349.59064 510.68912 349.09064Q510.06412 348.575 509.89224 347.59064ZM519.61096 348.5125L519.7672 349.4344Q519.3141 349.52814 518.97034 349.52814Q518.3922 349.52814 518.0797 349.35626Q517.7672 349.16876 517.6266 348.8719Q517.5016 348.575 517.5016 347.6219L517.5016 344.04376L516.73596 344.04376L516.73596 343.23126L517.5016 343.23126L517.5016 341.6844L518.54846 341.0594L518.54846 343.23126L519.61096 343.23126L519.61096 344.04376L518.54846 344.04376L518.54846 347.6844Q518.54846 348.1375 518.59534 348.2625Q518.65784 348.3875 518.78284 348.46564Q518.90784 348.54376 519.1422 348.54376Q519.3297 348.54376 519.61096 348.5125ZM519.92346 346.34064Q519.92346 344.60626 520.8766 343.77814Q521.67346 343.09064 522.8297 343.09064Q524.11096 343.09064 524.92346 343.9344Q525.7516 344.7625 525.7516 346.2469Q525.7516 347.45 525.3922 348.1375Q525.03284 348.825 524.3297 349.21564Q523.6422 349.59064 522.8297 349.59064Q521.53284 349.59064 520.72034 348.7625Q519.92346 347.91876 519.92346 346.34064ZM521.0016 346.34064Q521.0016 347.52814 521.5172 348.1219Q522.04846 348.71564 522.8297 348.71564Q523.6266 348.71564 524.1422 348.1219Q524.65784 347.52814 524.65784 346.3094Q524.65784 345.15314 524.1266 344.5594Q523.61096 343.96564 522.8297 343.96564Q522.04846 343.96564 521.5172 344.5594Q521.0016 345.1375 521.0016 346.34064ZM527.29846 349.45L527.29846 343.23126L528.2516 343.23126L528.2516 344.16876Q528.61096 343.5125 528.90784 343.3094Q529.22034 343.09064 529.59534 343.09064Q530.1266 343.09064 530.67346 343.41876L530.3141 344.40314Q529.92346 344.16876 529.54846 344.16876Q529.1891 344.16876 528.90784 344.3875Q528.6422 344.59064 528.53284 344.96564Q528.34534 345.52814 528.34534 346.1844L528.34534 349.45L527.29846 349.45ZM531.2672 351.84064L531.1422 350.85626Q531.48596 350.95 531.7516 350.95Q532.09534 350.95 532.29846 350.825Q532.5172 350.71564 532.65784 350.5125Q532.7516 350.34064 532.98596 349.71564Q533.0016 349.6375 533.0797 349.46564L530.7047 343.23126L531.84534 343.23126L533.1422 346.825Q533.3922 347.5125 533.59534 348.27814Q533.78284 347.54376 534.03284 346.85626L535.36096 343.23126L536.40784 343.23126L534.04846 349.5594Q533.65784 350.575 533.4547 350.96564Q533.17346 351.4969 532.79846 351.73126Q532.4391 351.98126 531.9391 351.98126Q531.6422 351.98126 531.2672 351.84064Z" fill-rule="nonzero"/><path fill="#5891ad" d="M158.5 20.55C158.5 19.997715 158.94771 19.55 159.5 19.55L169.5 19.55C170.05229 19.55 170.5 19.997715 170.5 20.55L170.5 30.55C170.5 31.102285 170.05229 31.55 169.5 31.55L159.5 31.55C158.94771 31.55 158.5 31.102285 158.5 30.55Z" fill-rule="nonzero"/><path fill="#1a1a1a" d="M185.5625 26.534374L186.6875 26.83125Q186.32812 28.221874 185.40625 28.95625Q184.48438 29.690624 183.14062 29.690624Q181.75 29.690624 180.875 29.128124Q180.0 28.565624 179.54688 27.503124Q179.09375 26.425 179.09375 25.190624Q179.09375 23.846874 179.60938 22.846874Q180.125 21.846874 181.0625 21.33125Q182.01562 20.815624 183.15625 20.815624Q184.4375 20.815624 185.3125 21.471874Q186.20312 22.128124 186.54688 23.315624L185.42188 23.58125Q185.125 22.64375 184.54688 22.221874Q183.98438 21.784374 183.125 21.784374Q182.14062 21.784374 181.46875 22.26875Q180.8125 22.7375 180.53125 23.534374Q180.26562 24.33125 180.26562 25.190624Q180.26562 26.284374 180.57812 27.096874Q180.90625 27.909374 181.57812 28.315624Q182.25 28.721874 183.04688 28.721874Q184.0 28.721874 184.65625 28.175Q185.32812 27.628124 185.5625 26.534374ZM194.5625 26.534374L195.6875 26.83125Q195.32812 28.221874 194.40625 28.95625Q193.48438 29.690624 192.14062 29.690624Q190.75 29.690624 189.875 29.128124Q189.0 28.565624 188.54688 27.503124Q188.09375 26.425 188.09375 25.190624Q188.09375 23.846874 188.60938 22.846874Q189.125 21.846874 190.0625 21.33125Q191.01562 20.815624 192.15625 20.815624Q193.4375 20.815624 194.3125 21.471874Q195.20312 22.128124 195.54688 23.315624L194.42188 23.58125Q194.125 22.64375 193.54688 22.221874Q192.98438 21.784374 192.125 21.784374Q191.14062 21.784374 190.46875 22.26875Q189.8125 22.7375 189.53125 23.534374Q189.26562 24.33125 189.26562 25.190624Q189.26562 26.284374 189.57812 27.096874Q189.90625 27.909374 190.57812 28.315624Q191.25 28.721874 192.04688 28.721874Q193.0 28.721874 193.65625 28.175Q194.32812 27.628124 194.5625 26.534374ZM200.04688 26.784374L201.10938 26.690624Q201.1875 27.346874 201.46875 27.753124Q201.75 28.159374 202.32812 28.425Q202.92188 28.675 203.65625 28.675Q204.29688 28.675 204.79688 28.4875Q205.29688 28.284374 205.53125 27.95625Q205.78125 27.6125 205.78125 27.221874Q205.78125 26.815624 205.54688 26.51875Q205.3125 26.20625 204.78125 26.003124Q204.42188 25.8625 203.23438 25.58125Q202.0625 25.3 201.59375 25.05Q200.96875 24.721874 200.67188 24.253124Q200.375 23.76875 200.375 23.175Q200.375 22.534374 200.73438 21.971874Q201.10938 21.39375 201.8125 21.1125Q202.53125 20.815624 203.39062 20.815624Q204.34375 20.815624 205.07812 21.128124Q205.8125 21.425 206.20312 22.034374Q206.59375 22.628124 206.625 23.378124L205.53125 23.45625Q205.4375 22.64375 204.92188 22.2375Q204.42188 21.815624 203.4375 21.815624Q202.40625 21.815624 201.9375 22.190624Q201.46875 22.565624 201.46875 23.096874Q201.46875 23.565624 201.79688 23.8625Q202.125 24.159374 203.5 24.471874Q204.89062 24.784374 205.40625 25.01875Q206.15625 25.378124 206.51562 25.909374Q206.875 26.425 206.875 27.128124Q206.875 27.815624 206.48438 28.425Q206.09375 29.01875 205.35938 29.3625Q204.625 29.690624 203.70312 29.690624Q202.53125 29.690624 201.73438 29.3625Q200.95312 29.01875 200.5 28.33125Q200.0625 27.64375 200.04688 26.784374ZM208.25 31.940624L208.125 30.95625Q208.46875 31.05 208.73438 31.05Q209.07812 31.05 209.28125 30.925Q209.5 30.815624 209.64062 30.6125Q209.73438 30.440624 209.96875 29.815624Q209.98438 29.7375 210.0625 29.565624L207.6875 23.33125L208.82812 23.33125L210.125 26.925Q210.375 27.6125 210.57812 28.378124Q210.76562 27.64375 211.01562 26.95625L212.34375 23.33125L213.39062 23.33125L211.03125 29.659374Q210.64062 30.675 210.4375 31.065624Q210.15625 31.596874 209.78125 31.83125Q209.42188 32.08125 208.92188 32.08125Q208.625 32.08125 208.25 31.940624ZM212.875 27.690624L213.90625 27.534374Q214.0 28.159374 214.39062 28.4875Q214.79688 28.815624 215.53125 28.815624Q216.25 28.815624 216.59375 28.534374Q216.95312 28.2375 216.95312 27.83125Q216.95312 27.471874 216.64062 27.26875Q216.42188 27.128124 215.5625 26.909374Q214.40625 26.6125 213.95312 26.409374Q213.51562 26.190624 213.28125 25.815624Q213.04688 25.440624 213.04688 24.971874Q213.04688 24.565624 213.23438 24.20625Q213.42188 23.846874 213.75 23.6125Q214.0 23.440624 214.42188 23.315624Q214.84375 23.190624 215.34375 23.190624Q216.0625 23.190624 216.60938 23.409374Q217.17188 23.6125 217.4375 23.971874Q217.70312 24.33125 217.79688 24.925L216.76562 25.065624Q216.70312 24.596874 216.35938 24.33125Q216.03125 24.05 215.40625 24.05Q214.6875 24.05 214.375 24.3Q214.0625 24.534374 214.0625 24.8625Q214.0625 25.065624 214.1875 25.221874Q214.32812 25.39375 214.59375 25.503124Q214.75 25.565624 215.53125 25.76875Q216.65625 26.08125 217.09375 26.26875Q217.53125 26.45625 217.78125 26.815624Q218.03125 27.175 218.03125 27.721874Q218.03125 28.253124 217.71875 28.721874Q217.42188 29.175 216.84375 29.440624Q216.26562 29.690624 215.53125 29.690624Q214.3125 29.690624 213.67188 29.190624Q213.04688 28.675 212.875 27.690624ZM222.59375 28.6125L222.75 29.534374Q222.29688 29.628124 221.95312 29.628124Q221.375 29.628124 221.0625 29.45625Q220.75 29.26875 220.60938 28.971874Q220.48438 28.675 220.48438 27.721874L220.48438 24.14375L219.71875 24.14375L219.71875 23.33125L220.48438 23.33125L220.48438 21.784374L221.53125 21.159374L221.53125 23.33125L222.59375 23.33125L222.59375 24.14375L221.53125 24.14375L221.53125 27.784374Q221.53125 28.2375 221.57812 28.3625Q221.64062 28.4875 221.76562 28.565624Q221.89062 28.64375 222.125 28.64375Q222.3125 28.64375 222.59375 28.6125ZM227.54688 27.55L228.64062 27.675Q228.39062 28.628124 227.6875 29.159374Q226.98438 29.690624 225.90625 29.690624Q224.54688 29.690624 223.73438 28.846874Q222.9375 28.003124 222.9375 26.4875Q222.9375 24.925 223.75 24.065624Q224.5625 23.190624 225.84375 23.190624Q227.09375 23.190624 227.875 24.034374Q228.67188 24.878124 228.67188 26.425Q228.67188 26.51875 228.67188 26.70625L224.03125 26.70625Q224.09375 27.7375 224.60938 28.284374Q225.125 28.815624 225.90625 28.815624Q226.48438 28.815624 226.89062 28.51875Q227.3125 28.20625 227.54688 27.55ZM224.09375 25.846874L227.5625 25.846874Q227.5 25.05 227.17188 24.659374Q226.65625 24.05 225.85938 24.05Q225.125 24.05 224.625 24.534374Q224.14062 25.01875 224.09375 25.846874ZM230.29688 29.55L230.29688 23.33125L231.23438 23.33125L231.23438 24.20625Q231.53125 23.7375 232.01562 23.471874Q232.5 23.190624 233.125 23.190624Q233.8125 23.190624 234.25 23.471874Q234.70312 23.753124 234.875 24.26875Q235.625 23.190624 236.79688 23.190624Q237.73438 23.190624 238.21875 23.70625Q238.71875 24.20625 238.71875 25.284374L238.71875 29.55L237.67188 29.55L237.67188 25.628124Q237.67188 25.003124 237.5625 24.721874Q237.46875 24.440624 237.20312 24.26875Q236.9375 24.096874 236.5625 24.096874Q235.90625 24.096874 235.46875 24.534374Q235.04688 24.971874 235.04688 25.940624L235.04688 29.55L233.98438 29.55L233.98438 25.503124Q233.98438 24.8 233.71875 24.45625Q233.46875 24.096874 232.89062 24.096874Q232.4375 24.096874 232.0625 24.33125Q231.6875 24.565624 231.51562 25.01875Q231.34375 25.471874 231.34375 26.315624L231.34375 29.55L230.29688 29.55Z" fill-rule="nonzero"/><path fill="#004561" d="M256.5 20.55C256.5 19.997715 256.94772 19.55 257.5 19.55L267.5 19.55C268.05228 19.55 268.5 19.997715 268.5 20.55L268.5 30.55C268.5 31.102285 268.05228 31.55 267.5 31.55L257.5 31.55C256.94772 31.55 256.5 31.102285 256.5 30.55Z" fill-rule="nonzero"/><path fill="#1a1a1a" d="M283.5625 26.534374L284.6875 26.83125Q284.32812 28.221874 283.40625 28.95625Q282.48438 29.690624 281.14062 29.690624Q279.75 29.690624 278.875 29.128124Q278.0 28.565624 277.54688 27.503124Q277.09375 26.425 277.09375 25.190624Q277.09375 23.846874 277.60938 22.846874Q278.125 21.846874 279.0625 21.33125Q280.01562 20.815624 281.15625 20.815624Q282.4375 20.815624 283.3125 21.471874Q284.20312 22.128124 284.54688 23.315624L283.42188 23.58125Q283.125 22.64375 282.54688 22.221874Q281.98438 21.784374 281.125 21.784374Q280.14062 21.784374 279.46875 22.26875Q278.8125 22.7375 278.53125 23.534374Q278.26562 24.33125 278.26562 25.190624Q278.26562 26.284374 278.57812 27.096874Q278.90625 27.909374 279.57812 28.315624Q280.25 28.721874 281.04688 28.721874Q282.0 28.721874 282.65625 28.175Q283.32812 27.628124 283.5625 26.534374ZM286.29688 29.55L286.29688 20.95625L287.34375 20.95625L287.34375 24.034374Q288.07812 23.190624 289.20312 23.190624Q289.90625 23.190624 290.40625 23.471874Q290.92188 23.7375 291.14062 24.221874Q291.35938 24.690624 291.35938 25.6125L291.35938 29.55L290.3125 29.55L290.3125 25.6125Q290.3125 24.815624 289.96875 24.45625Q289.625 24.096874 289.0 24.096874Q288.53125 24.096874 288.10938 24.346874Q287.70312 24.58125 287.51562 25.003124Q287.34375 25.409374 287.34375 26.14375L287.34375 29.55L286.29688 29.55ZM297.35938 28.784374Q296.76562 29.284374 296.21875 29.4875Q295.6875 29.690624 295.0625 29.690624Q294.03125 29.690624 293.48438 29.190624Q292.9375 28.690624 292.9375 27.909374Q292.9375 27.45625 293.14062 27.08125Q293.34375 26.690624 293.6875 26.471874Q294.03125 26.2375 294.45312 26.128124Q294.75 26.034374 295.39062 25.95625Q296.65625 25.815624 297.26562 25.596874Q297.26562 25.378124 297.26562 25.33125Q297.26562 24.675 296.96875 24.409374Q296.5625 24.065624 295.76562 24.065624Q295.03125 24.065624 294.67188 24.33125Q294.3125 24.58125 294.14062 25.2375L293.10938 25.096874Q293.25 24.440624 293.57812 24.034374Q293.90625 23.628124 294.51562 23.409374Q295.125 23.190624 295.92188 23.190624Q296.71875 23.190624 297.21875 23.378124Q297.71875 23.565624 297.95312 23.846874Q298.1875 24.128124 298.28125 24.565624Q298.32812 24.83125 298.32812 25.534374L298.32812 26.940624Q298.32812 28.409374 298.39062 28.8Q298.46875 29.190624 298.67188 29.55L297.5625 29.55Q297.40625 29.221874 297.35938 28.784374ZM297.26562 26.425Q296.6875 26.659374 295.54688 26.83125Q294.89062 26.925 294.625 27.05Q294.35938 27.159374 294.20312 27.378124Q294.0625 27.596874 294.0625 27.878124Q294.0625 28.3 294.375 28.58125Q294.70312 28.8625 295.3125 28.8625Q295.92188 28.8625 296.39062 28.596874Q296.875 28.33125 297.09375 27.8625Q297.26562 27.503124 297.26562 26.815624L297.26562 26.425ZM302.59375 28.6125L302.75 29.534374Q302.29688 29.628124 301.95312 29.628124Q301.375 29.628124 301.0625 29.45625Q300.75 29.26875 300.60938 28.971874Q300.48438 28.675 300.48438 27.721874L300.48438 24.14375L299.71875 24.14375L299.71875 23.33125L300.48438 23.33125L300.48438 21.784374L301.53125 21.159374L301.53125 23.33125L302.59375 23.33125L302.59375 24.14375L301.53125 24.14375L301.53125 27.784374Q301.53125 28.2375 301.57812 28.3625Q301.64062 28.4875 301.76562 28.565624Q301.89062 28.64375 302.125 28.64375Q302.3125 28.64375 302.59375 28.6125ZM307.45312 26.175L307.45312 25.175L311.07812 25.159374L311.07812 28.346874Q310.25 29.01875 309.35938 29.3625Q308.46875 29.690624 307.53125 29.690624Q306.26562 29.690624 305.21875 29.159374Q304.1875 28.6125 303.65625 27.596874Q303.14062 26.565624 303.14062 25.3Q303.14062 24.034374 303.65625 22.95625Q304.1875 21.8625 305.17188 21.346874Q306.15625 20.815624 307.4375 20.815624Q308.375 20.815624 309.125 21.1125Q309.875 21.409374 310.29688 21.95625Q310.73438 22.4875 310.95312 23.3625L309.9375 23.64375Q309.73438 22.9875 309.4375 22.6125Q309.15625 22.2375 308.625 22.01875Q308.09375 21.784374 307.45312 21.784374Q306.67188 21.784374 306.09375 22.01875Q305.53125 22.253124 305.17188 22.64375Q304.82812 23.034374 304.64062 23.503124Q304.3125 24.3 304.3125 25.221874Q304.3125 26.378124 304.70312 27.159374Q305.10938 27.925 305.85938 28.3Q306.60938 28.675 307.46875 28.675Q308.20312 28.675 308.90625 28.39375Q309.60938 28.096874 309.96875 27.784374L309.96875 26.175L307.45312 26.175ZM312.42188 29.55L312.42188 20.95625L315.67188 20.95625Q316.51562 20.95625 316.96875 21.034374Q317.60938 21.14375 318.03125 21.440624Q318.46875 21.7375 318.71875 22.26875Q318.98438 22.8 318.98438 23.440624Q318.98438 24.534374 318.28125 25.3Q317.59375 26.05 315.76562 26.05L313.5625 26.05L313.5625 29.55L312.42188 29.55ZM313.5625 25.05L315.78125 25.05Q316.89062 25.05 317.34375 24.64375Q317.8125 24.221874 317.8125 23.471874Q317.8125 22.940624 317.53125 22.565624Q317.26562 22.175 316.82812 22.05Q316.53125 21.971874 315.76562 21.971874L313.5625 21.971874L313.5625 25.05ZM322.60938 29.55L322.60938 21.971874L319.78125 21.971874L319.78125 20.95625L326.59375 20.95625L326.59375 21.971874L323.75 21.971874L323.75 29.55L322.60938 29.55Z" fill-rule="nonzero"/><path fill="#ff6f31" d="M342.5 20.55C342.5 19.997715 342.94772 19.55 343.5 19.55L353.5 19.55C354.05228 19.55 354.5 19.997715 354.5 20.55L354.5 30.55C354.5 31.102285 354.05228 31.55 353.5 31.55L343.5 31.55C342.94772 31.55 342.5 31.102285 342.5 30.55Z" fill-rule="nonzero"/><path fill="#1a1a1a" d="M363.42188 29.55L363.42188 20.95625L364.57812 20.95625L369.09375 27.70625L369.09375 20.95625L370.1875 20.95625L370.1875 29.55L369.01562 29.55L364.5 22.8L364.5 29.55L363.42188 29.55ZM371.90625 26.440624Q371.90625 24.70625 372.85938 23.878124Q373.65625 23.190624 374.8125 23.190624Q376.09375 23.190624 376.90625 24.034374Q377.73438 24.8625 377.73438 26.346874Q377.73438 27.55 377.375 28.2375Q377.01562 28.925 376.3125 29.315624Q375.625 29.690624 374.8125 29.690624Q373.51562 29.690624 372.70312 28.8625Q371.90625 28.01875 371.90625 26.440624ZM372.98438 26.440624Q372.98438 27.628124 373.5 28.221874Q374.03125 28.815624 374.8125 28.815624Q375.60938 28.815624 376.125 28.221874Q376.64062 27.628124 376.64062 26.409374Q376.64062 25.253124 376.10938 24.659374Q375.59375 24.065624 374.8125 24.065624Q374.03125 24.065624 373.5 24.659374Q372.98438 25.2375 372.98438 26.440624ZM382.42188 29.55L382.42188 20.95625L385.67188 20.95625Q386.51562 20.95625 386.96875 21.034374Q387.60938 21.14375 388.03125 21.440624Q388.46875 21.7375 388.71875 22.26875Q388.98438 22.8 388.98438 23.440624Q388.98438 24.534374 388.28125 25.3Q387.59375 26.05 385.76562 26.05L383.5625 26.05L383.5625 29.55L382.42188 29.55ZM383.5625 25.05L385.78125 25.05Q386.89062 25.05 387.34375 24.64375Q387.8125 24.221874 387.8125 23.471874Q387.8125 22.940624 387.53125 22.565624Q387.26562 22.175 386.82812 22.05Q386.53125 21.971874 385.76562 21.971874L383.5625 21.971874L383.5625 25.05ZM390.28125 29.55L390.28125 23.33125L391.23438 23.33125L391.23438 24.26875Q391.59375 23.6125 391.89062 23.409374Q392.20312 23.190624 392.57812 23.190624Q393.10938 23.190624 393.65625 23.51875L393.29688 24.503124Q392.90625 24.26875 392.53125 24.26875Q392.17188 24.26875 391.89062 24.4875Q391.625 24.690624 391.51562 25.065624Q391.32812 25.628124 391.32812 26.284374L391.32812 29.55L390.28125 29.55ZM398.54688 27.55L399.64062 27.675Q399.39062 28.628124 398.6875 29.159374Q397.98438 29.690624 396.90625 29.690624Q395.54688 29.690624 394.73438 28.846874Q393.9375 28.003124 393.9375 26.4875Q393.9375 24.925 394.75 24.065624Q395.5625 23.190624 396.84375 23.190624Q398.09375 23.190624 398.875 24.034374Q399.67188 24.878124 399.67188 26.425Q399.67188 26.51875 399.67188 26.70625L395.03125 26.70625Q395.09375 27.7375 395.60938 28.284374Q396.125 28.815624 396.90625 28.815624Q397.48438 28.815624 397.89062 28.51875Q398.3125 28.20625 398.54688 27.55ZM395.09375 25.846874L398.5625 25.846874Q398.5 25.05 398.17188 24.659374Q397.65625 24.05 396.85938 24.05Q396.125 24.05 395.625 24.534374Q395.14062 25.01875 395.09375 25.846874ZM401.54688 29.55L401.54688 24.14375L400.60938 24.14375L400.60938 23.33125L401.54688 23.33125L401.54688 22.659374Q401.54688 22.034374 401.65625 21.7375Q401.8125 21.315624 402.1875 21.065624Q402.57812 20.815624 403.26562 20.815624Q403.71875 20.815624 404.25 20.925L404.09375 21.83125Q403.76562 21.784374 403.46875 21.784374Q402.98438 21.784374 402.78125 21.9875Q402.59375 22.190624 402.59375 22.753124L402.59375 23.33125L403.8125 23.33125L403.8125 24.14375L402.59375 24.14375L402.59375 29.55L401.54688 29.55ZM408.54688 27.55L409.64062 27.675Q409.39062 28.628124 408.6875 29.159374Q407.98438 29.690624 406.90625 29.690624Q405.54688 29.690624 404.73438 28.846874Q403.9375 28.003124 403.9375 26.4875Q403.9375 24.925 404.75 24.065624Q405.5625 23.190624 406.84375 23.190624Q408.09375 23.190624 408.875 24.034374Q409.67188 24.878124 409.67188 26.425Q409.67188 26.51875 409.67188 26.70625L405.03125 26.70625Q405.09375 27.7375 405.60938 28.284374Q406.125 28.815624 406.90625 28.815624Q407.48438 28.815624 407.89062 28.51875Q408.3125 28.20625 408.54688 27.55ZM405.09375 25.846874L408.5625 25.846874Q408.5 25.05 408.17188 24.659374Q407.65625 24.05 406.85938 24.05Q406.125 24.05 405.625 24.534374Q405.14062 25.01875 405.09375 25.846874ZM411.28125 29.55L411.28125 23.33125L412.23438 23.33125L412.23438 24.26875Q412.59375 23.6125 412.89062 23.409374Q413.20312 23.190624 413.57812 23.190624Q414.10938 23.190624 414.65625 23.51875L414.29688 24.503124Q413.90625 24.26875 413.53125 24.26875Q413.17188 24.26875 412.89062 24.4875Q412.625 24.690624 412.51562 25.065624Q412.32812 25.628124 412.32812 26.284374L412.32812 29.55L411.28125 29.55ZM419.54688 27.55L420.64062 27.675Q420.39062 28.628124 419.6875 29.159374Q418.98438 29.690624 417.90625 29.690624Q416.54688 29.690624 415.73438 28.846874Q414.9375 28.003124 414.9375 26.4875Q414.9375 24.925 415.75 24.065624Q416.5625 23.190624 417.84375 23.190624Q419.09375 23.190624 419.875 24.034374Q420.67188 24.878124 420.67188 26.425Q420.67188 26.51875 420.67188 26.70625L416.03125 26.70625Q416.09375 27.7375 416.60938 28.284374Q417.125 28.815624 417.90625 28.815624Q418.48438 28.815624 418.89062 28.51875Q419.3125 28.20625 419.54688 27.55ZM416.09375 25.846874L419.5625 25.846874Q419.5 25.05 419.17188 24.659374Q418.65625 24.05 417.85938 24.05Q417.125 24.05 416.625 24.534374Q416.14062 25.01875 416.09375 25.846874ZM422.29688 29.55L422.29688 23.33125L423.23438 23.33125L423.23438 24.20625Q423.92188 23.190624 425.21875 23.190624Q425.78125 23.190624 426.25 23.39375Q426.73438 23.596874 426.96875 23.925Q427.20312 24.253124 427.29688 24.690624Q427.34375 24.9875 427.34375 25.721874L427.34375 29.55L426.29688 29.55L426.29688 25.76875Q426.29688 25.1125 426.17188 24.8Q426.04688 24.4875 425.73438 24.3Q425.42188 24.096874 425.0 24.096874Q424.32812 24.096874 423.82812 24.534374Q423.34375 24.95625 423.34375 26.14375L423.34375 29.55L422.29688 29.55ZM433.35938 27.26875L434.39062 27.409374Q434.21875 28.471874 433.51562 29.08125Q432.8125 29.690624 431.79688 29.690624Q430.51562 29.690624 429.73438 28.8625Q428.96875 28.01875 428.96875 26.45625Q428.96875 25.45625 429.29688 24.70625Q429.64062 23.940624 430.3125 23.565624Q431.0 23.190624 431.8125 23.190624Q432.8125 23.190624 433.45312 23.70625Q434.10938 24.20625 434.29688 25.159374L433.26562 25.315624Q433.125 24.690624 432.75 24.378124Q432.375 24.05 431.84375 24.05Q431.04688 24.05 430.54688 24.628124Q430.04688 25.190624 430.04688 26.425Q430.04688 27.690624 430.53125 28.253124Q431.01562 28.815624 431.78125 28.815624Q432.40625 28.815624 432.8125 28.440624Q433.23438 28.065624 433.35938 27.26875ZM439.54688 27.55L440.64062 27.675Q440.39062 28.628124 439.6875 29.159374Q438.98438 29.690624 437.90625 29.690624Q436.54688 29.690624 435.73438 28.846874Q434.9375 28.003124 434.9375 26.4875Q434.9375 24.925 435.75 24.065624Q436.5625 23.190624 437.84375 23.190624Q439.09375 23.190624 439.875 24.034374Q440.67188 24.878124 440.67188 26.425Q440.67188 26.51875 440.67188 26.70625L436.03125 26.70625Q436.09375 27.7375 436.60938 28.284374Q437.125 28.815624 437.90625 28.815624Q438.48438 28.815624 438.89062 28.51875Q439.3125 28.20625 439.54688 27.55ZM436.09375 25.846874L439.5625 25.846874Q439.5 25.05 439.17188 24.659374Q438.65625 24.05 437.85938 24.05Q437.125 24.05 436.625 24.534374Q436.14062 25.01875 436.09375 25.846874Z" fill-rule="nonzero"/></svg>